<?xml version="1.0" encoding="utf-8"?>
<!-- Generator: Adobe Illustrator 16.0.0, SVG Export Plug-In . SVG Version: 6.00 Build 0)  -->
<svg version="1.2" baseProfile="tiny" xmlns="http://www.w3.org/2000/svg" xmlns:xlink="http://www.w3.org/1999/xlink" x="0px"
	 y="0px" width="1587.159px" height="1305.13px" viewBox="0 0 1587.159 1305.13" xml:space="preserve">
<g id="background" display="none">
	<rect x="-29.44" y="66.729" display="inline" fill="#FFFFFF" width="1698.169" height="1203.119"/>
</g>
<g id="logo">
	<circle fill="#FFFFFF" stroke="#000000" stroke-miterlimit="10" cx="786.912" cy="656.104" r="620.253"/>
	<g id="Layer_3">
		<g>
			<path d="M757.322,869.682c-3.79,6.243-8.661,15.445-10.086,18.585c-0.676,1.57-0.439,1.646,1.224-0.99
				C750.137,884.651,753.329,879.306,757.322,869.682"/>
			<path d="M577.338,995.162c1.882,0.295,18.678-0.889,33.507-4.474c7.432-1.663,14.324-3.854,18.896-5.459
				c4.493-1.797,6.688-2.957,4.718-2.905C614.857,989.628,587.966,993.383,577.338,995.162z"/>
			<path d="M749.396,918.777c-1.336-1.517-8.018,6.844-17.569,16.682c-9.424,9.938-22.123,21.074-31.49,27.521
				c6.794-3.973,14.808-9.689,23.333-17.043C732.234,938.621,741.085,929.482,749.396,918.777z"/>
			<path d="M778.515,869.725c-1.785-0.117-3.615,3.413-6.366,9.998c-3.061,6.445-7.089,16.063-14.907,27.042
				C763.155,899.875,771.866,886.44,778.515,869.725z"/>
			<path d="M581.49,1025.17c-2.546-0.049-5.915-0.107-9.932-0.178c-2.004-0.002-4.171-0.014-6.48-0.014
				c-2.378-0.067-4.899-0.146-7.555-0.221c-5.521-0.041-10.557-0.477-16.167-0.772c-0.835-0.041-1.679-0.083-2.521-0.133
				l-2.269-0.22c-1.522-0.14-3.063-0.281-4.62-0.428c-3.109-0.31-6.294-0.522-9.492-1.004c-12.873-1.42-26.306-4.055-39.084-7.073
				c-12.811-2.967-24.792-6.924-35.061-10.486c5.377,2.174,10.53,4.045,15.478,5.773c5.016,1.555,9.743,3.268,14.524,4.479
				c4.748,1.313,9.392,2.604,14.138,3.603c2.363,0.529,4.732,1.055,7.118,1.598c2.41,0.433,4.838,0.876,7.3,1.322
				c4.918,0.974,10.031,1.601,15.4,2.324c2.683,0.413,5.443,0.644,8.293,0.894c1.422,0.133,2.864,0.257,4.333,0.392
				c0.731,0.069,1.473,0.135,2.216,0.198l1.122,0.098l0.563,0.05l0.987,0.046C550.424,1026.074,565.568,1026.385,581.49,1025.17z"/>
			<path d="M564.54,1028.268c25.361,0.176,40.217-3.505,41.358-4.033c0.586-0.337-2.24-0.117-8.921,0.758
				c-1.668,0.225-3.582,0.484-5.744,0.779c-2.176,0.24-4.601,0.503-7.287,0.798C578.571,1027.279,572.181,1027.674,564.54,1028.268"
				/>
			<path d="M324.627,829.742c0.347,1.322,0.661,3.313,1.271,5.794c0.608,2.473,1.341,5.462,2.165,8.815
				c1.036,3.317,2.011,7.045,3.34,10.924c1.417,3.858,2.745,8.009,4.592,12.085c3.327,8.285,7.846,16.563,12.317,23.935
				c4.65,7.284,9.39,13.617,13.429,17.93c2.064,2.558,3.564,4.511,4.662,5.98c1.164,1.432,1.879,2.4,2.271,3.034
				c0.781,1.277,0.271,1.238-0.511,0.88c-1.563-0.699-4.239-2.646,0.291,2.483c7.593,8.392,14.628,14.77,21.198,19.907
				c1.648,1.275,3.234,2.511,4.773,3.708c1.575,1.161,3.166,2.221,4.683,3.273c1.529,1.044,3.017,2.058,4.475,3.051
				c1.521,0.93,3.005,1.835,4.471,2.729c11.782,7.056,22.831,12.587,38.894,19.487c-1.147-0.644-2.705-1.454-4.617-2.438
				c-1.872-1.039-4.088-2.271-6.608-3.669c-2.568-1.327-5.282-3.037-8.298-4.821c-3.061-1.725-6.203-3.823-9.577-6.025
				c-13.521-8.738-29.045-21.223-42.96-35.999c-6.905-7.426-13.337-15.428-19.176-23.579c-5.713-8.222-10.715-16.638-14.971-24.806
				C332.387,856.019,327.456,840.582,324.627,829.742z"/>
			<path d="M314.682,783.132c-1.177,3.433-1.212,8.248-0.563,13.041c0.369,2.357,0.736,4.788,1.108,7.184
				c0.342,2.387,0.86,4.794,1.014,7.042c0.417-1.724,0.459-3.696,0.284-5.834c-0.063-2.102-0.325-4.364-0.671-6.706
				c-0.185-1.182-0.37-2.373-0.558-3.568l-0.349-3.802C314.744,787.959,314.612,785.472,314.682,783.132z"/>
			<path d="M359.594,927.778c8.924,9.813,22.153,22.413,33.894,30.966c11.676,8.619,21.166,13.587,20.048,11.098
				c-11.785-6.931-26.287-18.177-36.694-27.769C366.311,932.579,359.434,925.066,359.594,927.778z"/>
			<path d="M645.592,1006.731c6.411-1.988,9.525-3.554,12.378-4.841c1.415-0.657,2.759-1.281,4.342-2.016
				c1.556-0.782,3.362-1.648,5.755-2.718c1.033-1.197-7.422,2.396-14.923,5.308C645.685,1005.418,639.246,1007.939,645.592,1006.731
				z"/>
			<path d="M786.824,896.379c0.636-4.046-2.225,1.219-6.733,8.778c-2.209,3.79-5.029,8.076-7.691,12.201
				c-2.91,4.003-5.512,7.96-7.939,10.721C769.285,923.522,777.981,913.457,786.824,896.379z"/>
			<path d="M751.424,947.535c1.895-1.865,3.645-3.847,5.393-5.829c1.738-1.98,3.549-3.919,5.208-5.936l-1.221-0.802
				c-1.651,1.998-3.446,3.925-5.175,5.897c-1.739,1.964-3.478,3.94-5.373,5.798L751.424,947.535z"/>
			<path d="M466.304,984.58c-4.928-2.334-9.008-4.306-12.128-5.471c-3.129-1.144-5.141-1.791-5.738-1.708
				C447.236,977.504,451.829,980.627,466.304,984.58"/>
			<path d="M337.867,914.788c-7.595-10.323-14.352-21.127-19.871-32.372c-1.235,1.411,1.834,11.118,12.792,27.489
				C331.302,908.566,337.636,916.748,337.867,914.788z"/>
			<path d="M352.651,942.284c7.68,8.124,15.958,15.077,23.494,21.322c3.938,2.954,7.57,5.872,11.151,8.399
				c3.621,2.482,6.873,4.921,10.013,6.941c3.115,2.052,5.92,3.915,8.376,5.536c2.512,1.557,4.637,2.932,6.33,4.106
				c3.357,2.368,5.033,3.825,4.446,4.377c5.907,3.233,10.66,5.742,14.753,7.485c4.046,1.834,7.266,3.175,10.104,4.099
				c5.616,1.968,9.335,2.945,14.34,4.244c6.861,3.198,7.714,3.878,4.763,3.187c-2.891-0.807-9.689-2.758-17.46-5.978
				c-1.953-0.781-3.99-1.593-6.069-2.427c-2.035-0.914-4.118-1.853-6.204-2.791c-4.213-1.813-8.292-3.911-12.132-5.847
				c-3.889-1.862-7.339-3.858-10.337-5.451c-2.996-1.591-5.449-2.906-7.08-3.773c3.515,4.608,15.683,8.733,29.748,15.924
				c5.241,4.05-7.598-1.57-19.662-8.421c-2.993-1.735-5.987-3.473-8.702-5.044c-2.646-1.673-5.038-3.161-6.928-4.259
				c-3.787-2.195-5.532-2.948-3.321-0.557c25.038,16.49,48.109,26.277,68.459,33.048c20.481,6.591,38.432,10.162,55.448,12.321
				c4.262,0.471,8.451,1.083,12.644,1.315l6.266,0.455l3.125,0.223l1.353,0.061l0.714,0.021l1.427,0.04l5.723,0.163l2.875,0.08
				l1.45,0.042l1.66-0.026c4.405-0.06,8.948-0.081,13.42-0.238c17.449-0.734,36.255-2.912,58.031-8.151
				c5.723-0.989,8.594-1.244,11.854-1.646c3.255-0.396,6.966-0.816,14.006-3.071c21.573-7.633,42.034-18.032,61.553-30.974
				c9.673-6.588,19.09-13.822,28.199-21.806c8.984-8.104,17.653-16.921,25.846-26.604c1.297-2.751,5.038-7.454,6.799-10.159
				c1.708-2.744,1.968-3.121-3.643,2.724c6.406-8.622,14.057-19.628,20.781-31.939c6.733-12.295,12.471-25.859,16.395-38.732
				c8.126-25.771,8.285-48.333,6.386-51.188c-1.236,18.816-4.872,38.404-11.038,57.02c-6.263,18.588-15.104,36.089-25.109,51.113
				c-9.991,15.051-21.275,27.502-31.394,36.88c-10.215,9.34-19.272,15.636-25.218,18.729c-19.4,14.511-41.309,26.393-64.789,35.248
				c17.003-7.177,36.169-16.699,54.477-29.59c18.405-12.729,36.035-28.61,50.628-46.65c14.661-17.978,26.171-38.102,33.738-58.169
				c3.885-10.013,6.528-20.054,8.65-29.701c1.845-9.699,3.11-19.026,3.422-27.776c-1.597,4.529-3.512,16.951-6.663,30.042
				c-3.072,13.114-7.796,26.804-11.242,34.338c-7.524,17.632-17.458,34.834-30.14,50.975c-6.409,8.003-13.372,15.845-21.29,23.074
				c-3.83,3.728-8.093,7.117-12.283,10.602c-2.153,1.687-4.397,3.306-6.613,4.946c-2.197,1.67-4.488,3.249-6.862,4.754
				c-7.252,4.766-5.261,2.035-14.313,7.639c-20.42,13.175-42.551,23.446-66.412,30.735c-7.065,1.844-11.854,2.559-14.548,2.777
				c-2.735,0.077-3.418-0.443-2.461-1.423c-12.986,3.121-24.498,4.67-35.39,5.905c-5.512,0.367-10.698,0.94-16.197,1.043
				c-2.737,0.068-5.471,0.134-8.223,0.197c-2.836,0.101-5.183-0.065-7.839-0.092c-10.911-0.117-22.46-1.14-35.671-2.987
				c-13.217-1.871-28.09-5.091-45.351-10.541c-7.602-2.547-5.933-2.922-7.344-3.951c-8.658-2.769-17.927-6.428-27.371-10.521
				c-9.34-4.257-18.853-9.002-27.607-14.406c-17.677-10.613-32.695-23.207-41.556-33.762c2.954,0.105,8.817,10.246,24.302,20.756
				c-1.362-1.699-3.568-3.892-6.296-6.521c-2.612-2.741-5.932-5.769-9.359-9.265c-6.961-6.93-14.695-15.466-21.714-24.229
				c8.208,7.941,21.357,21.804,40.778,36.473c10.284,9.043,25.219,19.997,44.802,29.575c9.687,4.948,20.626,9.294,32.32,13.32
				c11.73,3.959,24.409,7.115,37.636,9.572c13.253,2.491,27.061,3.792,41.21,4.293c6.52,0.302,13.995,0.139,21.208-0.059
				c3.545-0.216,7.103-0.442,10.663-0.652c3.559-0.271,7.093-0.733,10.647-1.091c28.323-3.353,55.977-11.036,80.126-21.983
				c8.077-3.379,5.612-1.054,15.253-5.806c5.332-3.41,11.225-7.126,19.276-12.69c7.916-5.685,18.204-13.044,30.906-24.89
				c-2.08,3.039-7.649,8.205-12.685,12.742c-2.559,2.23-4.949,4.35-6.652,6.027c-1.771,1.605-2.83,2.798-2.62,3.284
				c9.817-7.442,20.706-16.657,31.22-27.58c10.531-10.912,20.671-23.521,29.357-37.205c8.704-13.674,15.942-28.4,21.275-43.161
				c5.355-14.752,8.806-29.512,10.721-43.126c-0.477-11.789-2.522-15.236-4.731-14.19c-2.358,1.041-4.898,6.557-8.102,12.782
				c-1.388,9.387-1.954,12.843-1.999,15.776c-0.035,2.935-0.173,5.227-1.885,12.077c-0.545-2.814-2.775,5.095-5.702,13.112
				c0.08-1.133,0.713-3.828,1.575-7.117c0.463-1.638,0.962-3.437,1.467-5.27c0.415-1.848,0.835-3.727,1.243-5.526
				c0.391-1.794,0.765-3.502,1.035-4.995c0.203-1.521,0.338-2.824,0.372-3.8c0.07-1.944-0.266-2.557-1.301-0.898
				c-0.256,1.229-0.566,2.702-0.906,4.336c-0.399,1.619-0.838,3.395-1.291,5.252c-0.445,1.85-0.914,3.771-1.378,5.703
				c-0.568,1.901-1.138,3.794-1.685,5.607c-1.015,3.648-2.282,6.858-3.241,9.09c-0.961,2.234-1.661,3.475-1.947,3.078
				c0.963-3.106,1.821-5.865,2.604-8.395c0.657-2.538,1.25-4.843,1.811-6.995c1.243-4.279,1.799-8.093,2.751-12.037
				c1.37-7.981,3.32-16.849,3.62-33.245l-9.104-0.471c-0.425,2.102-0.819,4.906-1.184,8.224c-0.318,3.315-1.066,7.087-1.574,11.156
				c-1.449,8.091-3.262,17.279-6.034,25.605c1.208-10.689,3.306-25.435,3.477-45.271l-9.113-0.475
				c-1.088,18.997-4.448,33.797-6.084,42.714c-1.385,4.647-2.858,7.442-3.888,9.152c-1.051,1.694-1.827,2.257-2.48,2.284
				c-1.298,0.046-2.094-2.017-3.496-1.525c-1.743,4.205-3.203,7.321-4.096,9.695c-1.084,2.316-1.701,3.865-1.982,4.866
				c-0.568,2.001,0.183,1.774,1.252,1.021c2.131-1.5,5.575-5.202,2.001,3.043c-6.111,11.441-5.948,9.693-5.47,7.176
				c0.414-2.552,1.195-5.75-4.172,2.086c-3,4.974-4.436,7.54-5.028,8.738c-0.534,1.224-0.065,1.151,0.634,0.8
				c1.39-0.707,3.712-2.604,0.625,2.608c-3.826,6.916-8.894,14.43-16.612,22.983c-7.72,8.528-18.141,18.163-33.383,28.055
				c-7.496,4.785-9.06,4.959-11.062,5.301c-0.992,0.193-2.078,0.456-4.065,1.354c-1.958,0.96-4.938,2.38-9.716,4.922
				c2.012,1.092-8.695,6.398-10.763,8.623c-16.95,7.438-30.334,10.908-41.013,13.027c-2.688,0.471-5.207,0.908-7.583,1.317
				c-2.398,0.325-4.672,0.553-6.829,0.789c-4.307,0.54-8.261,0.602-12.048,0.776c-7.58,0.228-14.833-0.061-22.872-0.501
				c-0.515-0.016-1.035-0.039-1.564-0.058c-0.632-0.05-1.272-0.096-1.922-0.152c-1.303-0.096-2.639-0.201-4.02-0.299
				c-1.378-0.092-2.801-0.19-4.269-0.296c-0.733-0.049-1.482-0.089-2.238-0.143h-0.034c-0.643-0.028,0.834,0.035,0.673,0.021
				l-0.066-0.004l-0.126-0.018l-0.249-0.025l-0.506-0.063l-1.035-0.111c-2.762-0.292-5.71-0.587-8.872-0.921
				c-3.139-0.432-6.498-0.89-10.11-1.383c4.544,0.755,7.894,1.446,9.878,1.963c1.994,0.423,2.611,0.746,1.651,0.915
				c-0.962,0.205-3.481,0.086-7.748-0.342c-4.276-0.35-10.257-1.289-18.049-2.918c4.026,1.563,5.104,2.028,4.122,2.239
				c-0.978,0.204-3.93-0.191-7.768-0.875c-7.745-1.14-18.792-4.188-24.917-5.283c-10.569-4.425-23.667-10.276-36.991-17.789
				c-13.368-7.431-26.833-16.617-38.736-26.443c-11.958-9.779-22.356-20.147-30.542-29.244c-8.148-9.113-14.437-16.78-18.492-21.099
				c10.153,19.201,25.639,39.107,47.315,57.009c21.592,17.898,49.421,33.718,82.72,44.115c-0.739,1.589-2.253,2.443-7.628,1.891
				c-5.336-0.639-14.589-2.69-29.98-8.743c11.437,6.408,20.553,9.006,32.007,11.668c11.508,2.602,25.335,5.58,48.299,9.073
				c-16.347-0.436-35.616-3.514-55.386-9.829c-9.867-3.199-19.844-7.16-29.693-11.79c-9.766-4.771-19.455-10.11-28.695-16.113
				c3.65,3.8,7.051,6.565,12.658,9.895c1.393,0.845,2.903,1.755,4.566,2.761c1.719,0.934,3.592,1.961,5.668,3.089
				c4.111,2.342,9.231,4.801,15.502,7.934c-2.073,0.22-15.395-5.711-27.703-13.072c-12.375-7.271-23.734-15.743-25.727-16.155
				c-2.803-1.229-2.143-0.268,0.277,1.813c2.439,2.059,6.799,5.046,11.168,8.014c8.85,5.795,18.28,10.855,12.237,9.119
				c25.65,14.79,51.185,23.721,75.316,28.927c24.168,5.301,47.051,6.752,68.949,6.139c10.937-0.575,21.718-1.326,32.292-3.109
				c5.339-0.672,10.531-1.928,15.826-2.871c5.18-1.31,10.484-2.337,15.63-3.923c20.795-5.784,41.384-14.17,61.825-26.124
				c-15.731,10.583-29.104,16.828-42.297,22.015c-13.273,5.099-26.471,9.222-43.777,13.211c-10.924,0.037-32.76,3.398-58.236,2.594
				c-25.418-0.3-54.162-5.214-76.105-13.465c-2.641,0.337,6.861,3.304,6.916,4.23c-24.562-7.119-38.574-13.671-52.047-20.584
				c-13.324-7.153-26.5-14.677-45.411-30.13c-1.445-2.994-15.312-15.537-27.647-31.81c-6.328-8.017-12.117-16.996-16.745-25.347
				c-2.263-4.204-4.35-8.203-5.874-11.946c-0.802-1.847-1.556-3.606-2.207-5.245c-0.58-1.674-1.087-3.222-1.514-4.631
				c1.143-0.374,9.724,17.363,9.157,11.809c-1.564-3.119-2.952-5.798-4.2-8.111c-1.131-2.365-2.121-4.38-3.034-6.124
				c-1.89-3.483-3.14-6.006-4.398-8.205c-2.559-4.401-4.583-7.688-7.52-16.102c-2.312-10.39-1.755-15.192,0.295-14.307
				c-1.76-5.729-2.838-9.448-4.055-12.066c-1.21-2.63-2.332-4.177-3.351-5.662c-2.007-3-4.526-5.585-5.822-16.603
				c-1.288,5.304-0.6,17.798,0.684,25.346c0.463,3.797,0.844,6.385,0.567,6.304c-0.373-0.075-1.336-2.811-3.26-9.797
				c1.561,12.085,4.508,23.993,8.361,35.704c3.748,8.224,2.01,2.312,2.188-0.536c4.042,13.1,9.382,25.87,15.195,37.326
				c5.729,11.501,12.151,21.548,17.478,29.716C353.759,937.143,360.394,945.974,352.651,942.284z"/>
			<path d="M564.87,1033.622c6.811-0.201,12.087-0.465,16.658-0.922c4.546-0.526,8.32-0.997,11.892-1.527
				c3.542-0.649,6.908-1.262,10.663-1.942c3.757-0.672,7.838-1.646,12.927-2.613c-0.075-0.245-4.105,0.325-9.894,1.282
				c-5.837,0.774-13.439,2.005-20.746,2.655c-7.276,0.9-14.223,1.254-18.544,1.79
				C563.474,1032.817,561.518,1033.114,564.87,1033.622z"/>
			<path d="M781.952,929.248c12.998-18.027,19.343-31.918,24.694-45.976c5.143-14.146,9.502-28.622,13.103-49.999
				c-2.997,16.171-10.632,40.397-20.099,59.772C790.368,912.477,780.34,927.329,781.952,929.248z"/>
			<path d="M816.877,865.137c1.182-4.026,2.022-7.44,2.583-10.706c0.583-3.268,1.28-6.292,1.693-9.636
				c0.49-3.339,1.011-6.933,1.648-11.259c0.262-2.162,0.556-4.511,0.868-7.104c0.169-1.286,0.344-2.648,0.529-4.064
				c0.131-1.422,0.254-2.914,0.395-4.478c-0.959,4.074-2.866,17.241-4.939,28.652c-1.275,5.667-2.169,10.98-2.924,14.484
				C816.035,864.549,815.943,866.37,816.877,865.137z"/>
		</g>
		<g>
			<path fill="#C90000" d="M858.697,546.854c3.491-6.416,7.923-15.84,9.196-19.043c0.598-1.601,0.363-1.664-1.18,1.046
				C865.164,531.562,862.232,537.051,858.697,546.854"/>
			<path fill="#C90000" d="M1032.524,412.974c-1.896-0.206-18.615,1.774-33.257,6.058c-7.345,2.017-14.123,4.53-18.615,6.35
				c-4.402,2.01-6.542,3.271-4.577,3.126C995.31,420.281,1021.995,415.253,1032.524,412.974z"/>
			<path fill="#C90000" d="M864.287,497.44c1.409,1.45,7.684-7.218,16.76-17.496c8.938-10.375,21.095-22.104,30.145-28.984
				c-6.599,4.289-14.331,10.379-22.496,18.13C880.484,476.804,872.081,486.352,864.287,497.44z"/>
			<path fill="#C90000" d="M837.528,547.819c1.787,0.033,3.453-3.583,5.886-10.29c2.747-6.584,6.318-16.383,13.608-27.719
				C851.439,516.974,843.376,530.804,837.528,547.819z"/>
			<path fill="#C90000" d="M1026.953,383.194c2.546-0.07,5.912-0.173,9.93-0.292c2.001-0.094,4.167-0.185,6.475-0.295
				c2.377-0.044,4.898-0.086,7.554-0.138c5.52-0.222,10.569-0.025,16.187,0.002c0.836,0.005,1.683,0.005,2.524,0.014l2.276,0.112
				c1.528,0.068,3.073,0.136,4.636,0.208c3.121,0.162,6.313,0.223,9.529,0.552c12.927,0.81,26.469,2.803,39.375,5.208
				c12.938,2.359,25.094,5.742,35.521,8.812c-5.476-1.916-10.712-3.54-15.737-5.033c-5.081-1.315-9.886-2.8-14.719-3.783
				c-4.804-1.086-9.506-2.155-14.293-2.928c-2.388-0.416-4.777-0.831-7.183-1.258c-2.429-0.319-4.876-0.644-7.356-0.974
				c-4.96-0.742-10.096-1.123-15.494-1.591c-2.699-0.285-5.468-0.383-8.324-0.499c-1.428-0.065-2.876-0.121-4.348-0.187
				c-0.733-0.033-1.479-0.063-2.223-0.091l-1.127-0.044l-0.564-0.023h-0.987C1057.942,380.817,1042.799,381.227,1026.953,383.194z"
				/>
			<path fill="#C90000" d="M1043.736,379.296c-25.339,1.028-40.005,5.41-41.118,5.993c-0.571,0.365,2.241,0.009,8.877-1.182
				c1.654-0.302,3.552-0.653,5.699-1.051c2.162-0.342,4.572-0.72,7.239-1.142C1029.767,380.951,1036.131,380.251,1043.736,379.296"
				/>
			<path fill="#C90000" d="M1292.803,566.211c-0.407-1.303-0.819-3.278-1.545-5.726c-0.725-2.442-1.6-5.395-2.582-8.706
				c-1.189-3.264-2.34-6.939-3.855-10.75c-1.597-3.788-3.117-7.869-5.157-11.855c-3.716-8.116-8.624-16.172-13.439-23.322
				c-4.993-7.056-10.028-13.156-14.268-17.271c-2.181-2.455-3.771-4.335-4.937-5.753c-1.23-1.374-1.993-2.307-2.414-2.922
				c-0.843-1.24-0.328-1.224,0.467-0.903c1.596,0.625,4.361,2.443-0.407-2.466c-7.983-8.023-15.312-14.06-22.12-18.879
				c-1.706-1.195-3.349-2.354-4.941-3.479c-1.628-1.083-3.269-2.066-4.834-3.046c-1.577-0.969-3.112-1.912-4.613-2.836
				c-1.563-0.854-3.089-1.689-4.597-2.513c-12.104-6.488-23.403-11.488-39.774-17.618c1.175,0.587,2.77,1.322,4.727,2.216
				c1.918,0.95,4.192,2.075,6.775,3.35c2.625,1.205,5.42,2.785,8.517,4.424c3.141,1.577,6.378,3.524,9.853,5.562
				c13.919,8.088,30.021,19.822,44.62,33.921c7.251,7.087,14.054,14.775,20.273,22.641c6.098,7.941,11.492,16.111,16.134,24.066
				C1283.804,540.332,1289.462,555.517,1292.803,566.211z"/>
			<path fill="#C90000" d="M1304.951,612.297c1.011-3.487,0.819-8.297-0.056-13.054c-0.481-2.338-0.964-4.748-1.451-7.125
				c-0.453-2.368-1.086-4.747-1.347-6.984c-0.333,1.741-0.281,3.713-0.006,5.84c0.165,2.097,0.529,4.346,0.987,6.666
				c0.244,1.172,0.482,2.354,0.726,3.54l0.529,3.779C1304.656,607.477,1304.909,609.957,1304.951,612.297z"/>
			<path fill="#C90000" d="M1253.22,469.946c-9.377-9.377-23.192-21.338-35.323-29.324c-12.073-8.055-21.788-12.566-20.556-10.133
				c12.102,6.362,27.122,16.91,37.974,25.995C1246.285,465.468,1253.51,472.646,1253.22,469.946z"/>
			<path fill="#C90000" d="M963.797,404.656c-6.309,2.291-9.346,4.003-12.134,5.423c-1.381,0.723-2.696,1.411-4.239,2.221
				c-1.518,0.854-3.281,1.804-5.621,2.987c-0.976,1.245,7.3-2.746,14.651-6.01C963.768,405.971,970.082,403.149,963.797,404.656z"/>
			<path fill="#C90000" d="M827.962,521.588c-0.445,4.071,2.167-1.322,6.308-9.087c2.028-3.893,4.642-8.306,7.105-12.555
				c2.717-4.137,5.131-8.212,7.422-11.083C844.196,493.643,835.985,504.11,827.962,521.588z"/>
			<path fill="#C90000" d="M860.899,468.809c-1.809,1.954-3.46,4.015-5.112,6.079c-1.647,2.061-3.359,4.083-4.922,6.176l1.258,0.744
				c1.555-2.075,3.259-4.085,4.89-6.139c1.645-2.042,3.289-4.099,5.091-6.044L860.899,468.809z"/>
			<path fill="#C90000" d="M1143.935,418.273c5.033,2.096,9.2,3.872,12.373,4.888c3.182,0.995,5.222,1.544,5.816,1.434
				C1163.318,424.437,1158.583,421.535,1143.935,418.273"/>
			<path fill="#C90000" d="M1275.541,481.888c8.077,9.951,15.339,20.424,21.385,31.394c1.166-1.467-2.358-11.02-14.079-26.853
				C1282.396,487.791,1275.681,479.918,1275.541,481.888z"/>
			<path fill="#C90000" d="M1259.467,455.126c-8.054-7.751-16.654-14.302-24.479-20.182c-4.073-2.766-7.838-5.508-11.537-7.861
				c-3.734-2.307-7.099-4.59-10.33-6.46c-3.21-1.902-6.103-3.626-8.629-5.131c-2.582-1.436-4.772-2.709-6.519-3.799
				c-3.467-2.206-5.21-3.584-4.648-4.165c-6.053-2.948-10.919-5.229-15.094-6.773c-4.127-1.641-7.407-2.827-10.285-3.617
				c-5.704-1.699-9.467-2.497-14.525-3.557c-7.004-2.871-7.889-3.507-4.908-2.959c2.925,0.671,9.808,2.297,17.724,5.143
				c1.986,0.688,4.06,1.401,6.179,2.136c2.072,0.819,4.199,1.657,6.326,2.494c4.297,1.612,8.47,3.514,12.398,5.264
				c3.973,1.675,7.513,3.507,10.583,4.956c3.069,1.446,5.582,2.644,7.253,3.435c-3.729-4.441-16.081-7.981-30.473-14.497
				c-5.428-3.798,7.665,1.209,20.042,7.48c3.072,1.591,6.144,3.182,8.931,4.625c2.721,1.544,5.183,2.915,7.123,3.924
				c3.885,2.012,5.663,2.682,3.343,0.4c-25.793-15.286-49.302-23.966-69.953-29.762c-20.77-5.615-38.869-8.327-55.968-9.677
				c-4.279-0.269-8.494-0.683-12.693-0.714l-6.279-0.157l-3.131-0.075l-1.354,0.004l-0.715,0.012l-1.427,0.029l-5.726,0.107
				l-2.875,0.056l-1.451,0.028l-1.656,0.105c-4.398,0.269-8.934,0.505-13.395,0.875c-17.394,1.563-36.077,4.63-57.578,10.896
				c-5.672,1.261-8.526,1.649-11.762,2.207c-3.233,0.552-6.918,1.144-13.845,3.734c-21.188,8.647-41.132,20.004-60.016,33.857
				c-9.348,7.041-18.411,14.714-27.129,23.121c-8.591,8.521-16.83,17.739-24.555,27.801c-1.168,2.81-4.682,7.688-6.311,10.472
				c-1.577,2.821-1.815,3.21,3.514-2.895c-5.994,8.917-13.111,20.273-19.246,32.89c-6.145,12.602-11.23,26.422-14.535,39.466
				c-6.893,26.13-5.985,48.673-3.949,51.433c0.337-18.853,3.041-38.59,8.315-57.479c5.376-18.865,13.374-36.764,22.658-52.246
				c9.263-15.51,19.944-28.481,29.607-38.331c9.761-9.813,18.512-16.532,24.3-19.904c18.689-15.417,40.009-28.322,63.041-38.285
				c-16.643,7.976-35.334,18.4-53.01,32.143c-17.78,13.589-34.633,30.29-48.356,49.003c-13.79,18.655-24.333,39.3-30.939,59.703
				c-3.408,10.185-5.569,20.344-7.23,30.079c-1.386,9.778-2.199,19.152-2.102,27.908c1.381-4.6,2.705-17.099,5.228-30.325
				c2.447-13.245,6.518-27.143,9.606-34.831c6.678-17.972,15.779-35.625,27.679-52.349c6.027-8.299,12.611-16.462,20.173-24.059
				c3.649-3.905,7.749-7.492,11.767-11.172c2.07-1.788,4.235-3.509,6.373-5.255c2.113-1.773,4.331-3.458,6.626-5.072
				c7.02-5.105,5.16-2.283,13.934-8.313c19.772-14.13,41.389-25.438,64.88-33.852c6.967-2.178,11.72-3.119,14.398-3.465
				c2.729-0.206,3.438,0.279,2.527,1.303c12.824-3.734,24.249-5.826,35.07-7.578c5.486-0.627,10.641-1.446,16.129-1.812
				c2.731-0.196,5.459-0.39,8.205-0.587c2.827-0.234,5.181-0.18,7.834-0.281c10.903-0.4,22.489,0.072,35.773,1.292
				c13.29,1.243,28.302,3.753,45.798,8.378c7.717,2.183,6.067,2.635,7.524,3.596c8.779,2.354,18.213,5.569,27.841,9.211
				c9.532,3.807,19.259,8.095,28.261,13.079c18.161,9.761,33.759,21.628,43.113,31.75c-2.957,0.035-9.298-9.815-25.263-19.579
				c1.44,1.634,3.748,3.72,6.597,6.217c2.741,2.613,6.201,5.479,9.793,8.812c7.282,6.591,15.41,14.75,22.836,23.167
				c-8.572-7.541-22.367-20.765-42.463-34.494c-10.701-8.544-26.138-18.776-46.154-27.417c-9.911-4.482-21.046-8.303-32.915-11.771
				c-11.907-3.397-24.72-5.947-38.049-7.772c-13.357-1.862-27.213-2.503-41.368-2.333c-6.528,0.007-13.986,0.524-21.181,1.064
				c-3.531,0.381-7.073,0.777-10.621,1.158c-3.542,0.44-7.052,1.067-10.583,1.594c-28.134,4.693-55.392,13.68-78.995,25.764
				c-7.905,3.758-5.554,1.318-14.957,6.521c-5.164,3.659-10.873,7.653-18.653,13.591c-7.639,6.055-17.563,13.894-29.688,26.329
				c1.933-3.135,7.248-8.561,12.063-13.329c2.451-2.349,4.737-4.581,6.359-6.338c1.693-1.687,2.692-2.929,2.461-3.401
				c-9.448,7.896-19.892,17.62-29.873,29.031c-10.003,11.399-19.532,24.473-27.557,38.556c-8.044,14.071-14.577,29.122-19.205,44.12
				c-4.652,14.991-7.393,29.897-8.662,43.587c1.04,11.754,3.243,15.1,5.396,13.952c2.306-1.154,4.586-6.783,7.491-13.152
				c0.941-9.445,1.338-12.924,1.245-15.853c-0.103-2.934-0.07-5.23,1.311-12.155c0.678,2.785,2.531-5.22,5.072-13.369
				c-0.021,1.137-0.528,3.858-1.234,7.185c-0.385,1.659-0.794,3.479-1.213,5.334c-0.327,1.865-0.66,3.762-0.978,5.578
				c-0.304,1.812-0.604,3.536-0.8,5.04c-0.125,1.528-0.201,2.835-0.191,3.811c0.028,1.944,0.388,2.543,1.343,0.838
				c0.201-1.24,0.437-2.728,0.701-4.375c0.323-1.635,0.674-3.43,1.039-5.306c0.357-1.87,0.735-3.812,1.106-5.761
				c0.48-1.93,0.957-3.846,1.416-5.683c0.842-3.692,1.954-6.958,2.807-9.235c0.852-2.276,1.493-3.549,1.797-3.165
				c-0.814,3.147-1.537,5.943-2.199,8.507c-0.538,2.569-1.021,4.897-1.479,7.075c-1.039,4.333-1.413,8.168-2.175,12.152
				c-0.993,8.04-2.518,16.988-2.04,33.381l9.115,0.04c0.326-2.12,0.584-4.942,0.795-8.271c0.159-3.33,0.73-7.131,1.044-11.219
				c1.059-8.152,2.435-17.415,4.811-25.866c-0.703,10.737-2.099,25.563-1.325,45.385l9.123,0.042
				c0.185-19.026,2.837-33.97,4.05-42.952c1.164-4.709,2.503-7.573,3.448-9.328c0.973-1.743,1.722-2.34,2.367-2.398
				c1.296-0.107,2.195,1.914,3.565,1.356c1.545-4.284,2.851-7.466,3.637-9.88c0.968-2.364,1.512-3.943,1.745-4.956
				c0.473-2.024-0.267-1.762-1.299-0.957c-2.059,1.598-5.322,5.459-2.141-2.946c5.559-11.719,5.479-9.967,5.124-7.428
				c-0.295,2.569-0.922,5.8,4.066-2.279c2.762-5.113,4.071-7.745,4.604-8.968c0.478-1.25,0.009-1.156-0.669-0.77
				c-1.353,0.77-3.585,2.775-0.749-2.579c3.496-7.089,8.198-14.833,15.501-23.746c7.307-8.881,17.26-19.001,32.014-29.606
				c7.263-5.136,8.816-5.382,10.8-5.819c0.981-0.241,2.056-0.554,3.996-1.546c1.91-1.05,4.818-2.611,9.473-5.376
				c-2.064-0.995,8.38-6.804,10.341-9.125c16.574-8.233,29.78-12.335,40.346-14.958c2.663-0.597,5.159-1.156,7.513-1.678
				c2.38-0.438,4.64-0.772,6.783-1.111c4.276-0.744,8.225-0.995,11.998-1.348c7.563-0.587,14.819-0.644,22.871-0.587
				c0.515-0.007,1.036-0.007,1.565-0.014c0.631,0.019,1.274,0.038,1.927,0.061c1.307,0.035,2.644,0.075,4.029,0.107
				c1.381,0.026,2.806,0.059,4.277,0.091c0.734,0.014,1.483,0.021,2.241,0.037h0.033c0.646-0.004-0.833,0.005-0.672,0.01
				l0.065,0.002l0.129,0.009l0.248,0.014l0.51,0.04l1.036,0.061c2.775,0.162,5.732,0.316,8.907,0.499
				c3.156,0.281,6.532,0.58,10.164,0.903c-4.573-0.541-7.955-1.072-9.96-1.493c-2.012-0.328-2.644-0.622-1.692-0.835
				c0.951-0.252,3.473-0.252,7.755-0.026c4.288,0.143,10.309,0.8,18.167,2.057c-4.097-1.371-5.196-1.783-4.224-2.04
				c0.97-0.25,3.937,0.004,7.802,0.503c7.791,0.77,18.97,3.294,25.142,4.097c10.766,3.917,24.127,9.139,37.791,16.011
				c13.707,6.79,27.592,15.325,39.948,24.574c12.41,9.202,23.288,19.066,31.897,27.763c8.572,8.716,15.217,16.076,19.47,20.199
				c-11.052-18.699-27.464-37.849-49.965-54.7c-22.417-16.855-50.969-31.333-84.724-40.138c0.664-1.623,2.134-2.547,7.532-2.253
				c5.359,0.389,14.7,1.996,30.359,7.314c-11.727-5.861-20.956-8.021-32.524-10.138c-11.618-2.052-25.573-4.37-48.675-6.771
				c16.35-0.341,35.744,1.82,55.79,7.19c10.007,2.729,20.161,6.209,30.217,10.37c9.983,4.298,19.917,9.172,29.43,14.731
				c-3.826-3.622-7.354-6.222-13.112-9.284c-1.432-0.777-2.985-1.615-4.693-2.541c-1.76-0.85-3.678-1.785-5.808-2.815
				c-4.215-2.143-9.447-4.359-15.86-7.188c2.062-0.318,15.65,4.972,28.294,11.74c12.705,6.676,24.452,14.6,26.462,14.916
				c2.86,1.095,2.155,0.166-0.361-1.797c-2.534-1.942-7.031-4.719-11.538-7.475c-9.111-5.368-18.773-9.977-12.653-8.528
				c-26.324-13.554-52.255-21.263-76.607-25.318c-24.388-4.148-47.317-4.513-69.161-2.859c-10.898,1.092-21.631,2.356-32.107,4.64
				c-5.3,0.924-10.429,2.424-15.671,3.617c-5.113,1.556-10.363,2.833-15.426,4.661c-20.499,6.767-40.665,16.118-60.515,29.029
				c15.209-11.317,28.271-18.189,41.202-23.996c13.019-5.723,26.004-10.468,43.103-15.274c10.91-0.556,32.562-4.951,58.048-5.357
				c25.402-0.908,54.347,2.639,76.659,9.838c2.62-0.461-7.012-2.974-7.111-3.898c24.873,5.948,39.179,11.825,52.964,18.09
				c13.649,6.512,27.168,13.404,46.792,27.939c1.584,2.924,16.035,14.794,29.129,30.465c6.7,7.705,12.905,16.399,17.926,24.52
				c2.462,4.093,4.735,7.988,6.435,11.655c0.89,1.809,1.728,3.528,2.452,5.135c0.66,1.645,1.24,3.166,1.73,4.553
				c-1.122,0.428-10.537-16.881-9.705-11.362c1.708,3.044,3.226,5.653,4.582,7.906c1.24,2.307,2.326,4.274,3.322,5.971
				c2.049,3.39,3.42,5.852,4.782,7.988c2.766,4.275,4.941,7.461,8.273,15.728c2.803,10.269,2.476,15.091,0.383,14.305
				c2.032,5.639,3.285,9.303,4.628,11.86c1.329,2.569,2.522,4.059,3.613,5.496c2.147,2.899,4.787,5.362,6.603,16.308
				c1.039-5.361-0.243-17.808-1.886-25.286c-0.641-3.772-1.146-6.338-0.865-6.271c0.379,0.059,1.47,2.744,3.725,9.632
				c-2.134-11.998-5.644-23.753-10.047-35.269c-4.137-8.037-2.12-2.213-2.162,0.639c-4.655-12.894-10.599-25.395-16.948-36.56
				c-6.267-11.217-13.159-20.95-18.868-28.854C1258.606,460.311,1251.558,451.809,1259.467,455.126z"/>
			<path fill="#C90000" d="M1043.153,373.964c-6.792,0.524-12.052,1.039-16.596,1.713c-4.516,0.739-8.264,1.39-11.807,2.089
				c-3.507,0.816-6.841,1.588-10.559,2.447c-3.723,0.847-7.752,2.017-12.787,3.222c0.085,0.244,4.084-0.517,9.82-1.748
				c5.796-1.053,13.329-2.642,20.597-3.638c7.226-1.247,14.146-1.928,18.438-2.667
				C1044.584,374.704,1046.525,374.313,1043.153,373.964z"/>
			<path fill="#C90000" d="M831.266,488.525c-12.125,18.626-17.8,32.801-22.479,47.096c-4.464,14.375-8.134,29.04-10.712,50.565
				c2.224-16.295,8.7-40.858,17.235-60.659C823.658,505.675,832.97,490.367,831.266,488.525z"/>
			<path fill="#C90000" d="M799.423,554.223c-0.983,4.078-1.661,7.526-2.068,10.816c-0.426,3.289-0.979,6.345-1.235,9.705
				c-0.333,3.357-0.679,6.97-1.11,11.324c-0.159,2.171-0.341,4.533-0.528,7.133c-0.107,1.297-0.22,2.663-0.336,4.085
				c-0.061,1.43-0.117,2.925-0.183,4.495c0.763-4.116,2.044-17.358,3.575-28.856c1.005-5.721,1.642-11.072,2.231-14.609
				C800.298,554.768,800.303,552.945,799.423,554.223z"/>
		</g>
		<g>
			<path fill="#C90000" d="M442.431,607.067c-5.237-0.067-10.959,0.686-16.655,2.583l-1.197,0.419l-0.601,0.208l-0.471,0.174
				l-0.919,0.325l-0.705,0.323c-0.931,0.434-1.822,0.926-2.665,1.568c-0.442,0.28-0.835,0.672-1.268,1.001
				c-0.393,0.408-0.831,0.746-1.214,1.207c-0.813,0.832-1.567,1.848-2.302,2.935c-0.741,1.081-1.393,2.336-2.037,3.616
				c-0.597,1.334-1.197,2.694-1.671,4.176c-1.005,2.915-1.715,6.1-2.175,9.349c-0.93,6.511-0.787,13.313,0.224,19.621
				c0.153,0.947,0.331,1.893,0.512,2.84l0.133,0.704l0.139,0.628l0.267,1.255c0.248,0.748,0.491,1.481,0.715,2.222
				c0.125,0.377,0.192,0.723,0.356,1.126l0.46,1.195c1.124,3.194,2.716,6.361,4.494,9.501l1.378,2.352l1.536,2.322
				c0.258,0.387,0.496,0.78,0.768,1.163l0.84,1.145c0.565,0.762,1.093,1.537,1.677,2.294c1.221,1.495,2.349,3.03,3.669,4.49
				c0.647,0.735,1.251,1.491,1.925,2.214l2.02,2.173c5.434,5.778,11.623,11.163,18.067,16.182
				c6.501,4.976,13.324,9.552,20.253,13.641c-0.684,1.189-4.063,1.528-2.071,3.522c8.484,7.202,7.436,9.482,6.138,11.936
				c-0.656,1.259-7.506-4.037-5.663-1.481c-7.539-4.024-19.816-11.468-13.355-5.603c0.424,0.672,1.393,1.505,2.643,2.402
				c1.264,0.874,2.794,1.837,4.326,2.799c1.548,0.934,3.078,1.899,4.333,2.808c1.263,0.893,2.235,1.76,2.633,2.558
				c1.627,3.21-4.523,2.193-2.892,5.403c1.308,0.729,3.323,1.725,5.315,2.761c2.021,0.983,4.034,1.981,5.399,2.604
				c2.175,2.495-4.491,2.441-1.727,3.706c3.866,2.561,8.766,4.847,14.24,6.875c5.491,2.02,11.534,3.771,18.01,5.147
				c-0.138,0.667,0.438,1.481,0.319,2.065c-0.059,0.292-0.292,0.526-0.875,0.656c-0.666,0.101-1.746,0.076-3.445-0.14
				c-7.165-1.667-13.768-3.891-20.24-6.378c-6.452-2.5-12.706-5.311-18.828-8.385c-12.23-6.163-23.958-13.346-35.073-21.771
				c-5.554-4.214-10.939-8.763-16.073-13.739c-5.133-4.974-10.028-10.362-14.503-16.309c-4.466-5.945-8.523-12.462-11.766-19.667
				c-0.857-1.762-1.547-3.654-2.262-5.524c-0.755-1.844-1.294-3.825-1.892-5.766l-0.435-1.462c-0.139-0.497-0.249-1.045-0.372-1.567
				l-0.698-3.172c-0.109-0.527-0.232-1.065-0.326-1.584l-0.209-1.507l-0.203-1.508l-0.16-1.384
				c-0.833-7.336-1.092-14.767-0.578-22.359c0.539-7.589,1.799-15.358,4.506-23.292c1.359-3.959,3.109-7.964,5.441-11.903
				c2.326-3.931,5.25-7.805,8.882-11.275c3.604-3.48,7.997-6.465,12.706-8.591l1.774-0.78l1.622-0.599l1.57-0.558l1.337-0.451
				l1.343-0.448l1.512-0.439c1.007-0.297,2.019-0.577,3.046-0.808c8.166-1.965,16.767-2.615,25.536-1.389
				c8.725,1.213,17.714,4.455,25.4,10.099c7.707,5.587,13.707,13.462,17.252,21.626c1.781,4.083,3.08,8.225,3.97,12.309
				c0.225,1.021,0.383,2.03,0.57,3.046l0.265,1.521l0.187,1.502l0.348,3l0.187,2.953c0.08,1.813-0.046,3.178-0.154,4.223
				c-0.118,1.041-0.273,1.741-0.457,2.15c-0.191,0.341-0.404,0.443-0.633,0.346c-0.228-0.09-0.471-0.378-0.742-0.939
				c-1.061-2.149-2.339-7.216-4.197-12.164c1.124,3.313-0.845,3.555,0.07,6.812c-0.51,0.036-1.136-0.34-1.814-1.104
				c-0.341-0.382-0.687-0.859-1.054-1.432c-0.389-0.575-0.788-1.244-1.189-2.002c-1.632-3.033-3.387-7.544-6.095-13.325
				c1.25,2.945,2.085,5.999,2.774,9.06c-0.078,3.188-2.006,0.389-3.329,0.711c-0.306-1.446-0.703-2.875-1.071-3.919
				c-0.424-1.031-0.814-1.676-1.137-1.565c-0.644,0.217-1.936,0.652-2.581,0.869c0.458,1.295,1.014,3.293,1.458,5.325
				c0.187,1.026,0.414,2.042,0.555,2.989c0.126,0.951,0.241,1.815,0.333,2.506c-0.303-2.779-0.899-5.497-1.552-5.351
				c-0.666,0.142-1.999,0.427-2.666,0.569c-0.89-2.453-1.584-5.549-2.716-8.48c-1.099-2.932-2.665-5.673-4.494-7.325l-1.58,1.292
				c1.185,1.949,2.714,4.315,3.978,6.975c1.282,2.636,2.28,5.54,2.816,7.965c-1.228-2.264-1.91-2.029-3.216-1.685
				c-1.235-3.212-2.149-6.362-3.728-9.113c-1.552-2.72-3.734-5.121-6.746-6.062c1.574,1.182,2.992,2.545,4.257,4.076
				c-1.28-0.244-2.505-0.842-3.727-1.665c-1.274-0.764-2.58-1.737-4.062-2.675C449.505,608.705,445.654,607.061,442.431,607.067z"/>
		</g>
		<g>
			<path fill="#C90000" d="M522.051,573.682c4.501-1.225,9.248-1.947,14.109-2.161c4.863-0.231,9.842,0.063,14.819,0.892
				c9.95,1.618,19.929,5.446,28.759,11.449c4.39,3.03,8.504,6.563,12.095,10.581c3.58,4.02,6.72,8.439,9.188,13.125
				c2.488,4.674,4.392,9.55,5.771,14.409c0.358,1.214,0.634,2.453,0.949,3.672c0.274,1.257,0.471,2.591,0.699,3.878
				c0.529,2.609,0.633,5.142,0.825,7.673c0.262,6.009-0.193,12.101-1.538,17.779l-0.463,2.163c-0.177,0.708-0.391,1.392-0.588,2.09
				c-0.413,1.39-0.826,2.782-1.24,4.177c-0.499,1.337-0.998,2.675-1.498,4.016l-0.768,2.01l-0.867,1.928
				c-4.603,10.351-10.68,19.63-17.498,27.969c-13.659,16.724-29.935,30.22-47.012,41.12c-0.718-1.156,0.976-4.66-2.193-3.448
				c-3.048,1.38-5.5,2.129-7.382,2.579c-1.879,0.455-3.274,0.496-4.301,0.335c-2.054-0.327-2.698-1.528-3.353-2.723
				c-0.331-0.608,1.785-1.73,3.506-2.736c1.714-1.018,3.083-1.83,1.368-1.604c4.139-2.371,9.331-6.046,12.39-8.574
				c3.04-2.564,3.977-3.921-0.23-1.696c-1.706,0.304-4.878,2.593-8.254,4.578c-0.836,0.508-1.675,1.012-2.491,1.479
				c-0.832,0.443-1.641,0.853-2.401,1.199c-1.523,0.688-2.837,1.143-3.77,1.073c-1.867-0.14-1.68-1.408-1.518-2.663
				c0.164-1.262,0.295-2.527-1.513-2.663c-1.321,0.714-3.282,1.831-5.273,2.876c-2.01,0.997-3.994,2.067-5.356,2.671
				c-3.25-0.004,0.903-4.918-1.756-3.692c-4.223,1.264-8.9,3.044-13.868,4.75c-4.953,1.698-10.258,3.162-15.247,3.659
				c-0.063-0.679-0.903-1.284-0.96-1.877c-0.029-0.297,0.138-0.59,0.696-0.888c0.427-0.307,1.144-0.624,2.3-0.942
				c5.209-0.832,10.869-2.585,16.448-4.847c5.597-2.27,11.169-5.053,16.613-8.16c10.909-6.207,21.284-13.803,30.763-22.201
				c4.746-4.202,9.196-8.681,13.362-13.314c4.146-4.643,8.021-9.468,11.303-14.471c3.298-4.989,6.102-10.123,8.129-15.218
				c2.031-5.09,3.251-10.126,3.472-14.73c0.011-0.571,0.132-1.169,0.074-1.717c-0.037-0.554-0.064-1.106-0.083-1.659
				c0.041-1.136-0.242-2.134-0.36-3.181l-0.097-0.782L577.607,631c-0.139-0.579-0.257-1.161-0.444-1.734
				c-0.316-1.162-0.702-2.282-1.119-3.379c-1.685-4.377-4.156-8.227-7.361-11.518c-6.356-6.583-15.922-10.908-26.062-11.952
				c-10.088-1.097-20.623,1.042-28.068,5.961c-7.515,4.884-11.892,12.003-13.092,21.505c-0.361,2.16-0.625,3.463-1.042,3.995
				c-0.191,0.365-0.404,0.474-0.633,0.37c-0.114-0.052-0.233-0.156-0.354-0.309c-0.121-0.146-0.239-0.276-0.362-0.469
				c-1.013-1.484-2.084-5.187-2.27-8.949c0.073,1.246-0.328,1.784-0.79,2.335c-0.423,0.558-0.837,1.151-0.648,2.438
				c-0.515-0.051-1.072-0.42-1.6-1.138c-0.535-0.72-1.058-1.797-1.382-3.227c-0.673-2.835-0.709-7.278,1.599-12.452
				c-1.31,2.485-2.352,5.112-3.132,7.837c-1.43,2.57-1.99-0.521-3.272-0.94c0.399-1.478,0.938-2.906,1.252-4.012
				c0.361-1.088,0.5-1.865,0.188-2.004c-0.622-0.274-1.869-0.825-2.492-1.099c-0.642,1.509-1.579,3.798-2.221,6.173
				c-0.374,1.174-0.608,2.379-0.876,3.472c-0.23,1.1-0.388,2.107-0.538,2.91c0.485-3.228,1.402-6.376,0.76-6.568
				c-0.655-0.188-1.964-0.564-2.62-0.753c0.623-3.466,2.419-7.589,4.772-11.331c2.32-3.781,5.229-7.089,7.433-9.848l-1.465-1.421
				c-2.8,2.39-5.77,6.045-7.96,10.125c-2.239,4.06-3.758,8.421-4.742,11.912c0.162-1.847,0.173-2.826-0.075-3.407
				c-0.246-0.582-0.725-0.759-1.366-0.99c0.372-1.392,0.942-2.733,1.484-4.074c0.622-1.313,1.235-2.632,1.995-3.878
				c1.443-2.529,3.177-4.888,5.03-7.112c1.838-2.243,3.843-4.317,5.871-6.351c2.021-2.05,4.111-4.011,6.195-6.058
				c-3.167,2.164-6.161,4.66-8.877,7.46c0.729-2.013,2.435-4.22,4.76-6.382c2.344-2.135,5.344-4.139,8.597-5.809
				C509.209,576.937,516.616,575.083,522.051,573.682z"/>
		</g>
		<g>
			<path fill="#070707" d="M321.155,556.64c-1.056,13.294-3.447,27.76-5.377,42.252c-1.942,14.482-3.386,29.026-2.873,42.167
				c0.329,7.885,0.799,15.885,1.291,23.826c0.042,1.007,0.126,1.981,0.228,2.942l0.269,2.904l0.265,2.912l0.337,2.958
				c0.401,3.939,0.959,7.92,1.483,11.902c2.247,15.961,5.339,32.207,8.303,48.245c-1.339,0.247-3.841-2.049-4.018,0.741
				c-0.047,11.066-2.744,11.558-5.424,12.031c-1.334,0.236-1.452-8.008-2.307-5.099c-1.463-8.002-4.596-21.159-4.458-12.937
				c-0.851,2.902,2.461,13.301,0.922,16.326c-1.529,3.021-4.504-1.928-6.031,1.086c0.464,2.649,1.39,7.941,1.854,10.588
				c-0.915,2.854-4.463-1.952-4.032,0.679c-0.003,8.105,2.265,18.426,3.289,28.813c-0.678,0.067-1.29,0.808-1.882,0.867
				c-0.591,0.054-1.165-0.582-1.791-3.101c-2.71-22.469-8.12-45.355-12.657-69.341c-2.267-11.985-4.288-24.282-5.491-36.919
				l-0.44-4.743l-0.316-4.829c-0.083-1.6-0.24-3.254-0.257-4.812l-0.11-4.718c-0.076-3.147-0.157-6.3-0.111-9.406
				c0.032-3.115-0.01-6.243,0.091-9.351c0.557-24.91,3.225-49.51,6.871-73.537c3.655-24.031,8.25-47.538,12.684-70.596
				c2.472-10.471,3.808-2.089,4.467,6.219c-0.221-2.765,1.794-2.42,1.574-5.193c2.014,0.339,4.477,6.227,3.287,16.998
				c0.463-2.662,0.925-5.321,1.389-7.987c1.133-2.546,2.013,0.348,3.354,0.581c-0.464,2.667-0.927,5.329-0.254,5.446
				c0.67,0.117,2.013,0.351,2.683,0.467c0.46-2.664,1.383-8.001,1.843-10.666c-0.45,2.668-0.916,5.333-0.246,5.449
				c0.671,0.116,2.014,0.349,2.686,0.465c-0.255,5.458-2.997,13.216-3.26,18.664l2.01,0.352c1.608-5.212,2.335-13.324,3.261-18.668
				c0.207,2.789,0.877,2.906,2.221,3.139c-0.718,8.133-4.146,15.767-3.515,24.088l1.389-7.971
				C326.784,535.78,321.772,548.589,321.155,556.64z"/>
		</g>
		<g>
			<path fill="#020202" d="M668.353,541.306c13.66-2.921,30.788-1.31,44.689-4.589c16.625-4.188,34.986-5.991,52.145-7.39
				c0.11,1.357-1.148,3.508,0.334,4.072c5.868,1.572,6.074,4.29,6.288,7.005c0.107,1.358-4.255,0.346-2.729,1.589
				c-4.257,0.334-11.281,1.624-6.915,2.616c1.528,1.232,7.079-0.578,8.654,1.341c1.575,1.923-1.086,4.189,0.485,6.109
				c1.41-0.108,4.226-0.324,5.634-0.433c1.504,1.257-1.099,4.181,0.306,4.077c4.311,1.028,9.857-0.021,15.453-0.378
				c0.091,1.362,1.561,2.628-1.188,3.49c-24.348,2.176-49.159,5.738-74.346,8.561c-25.172,2.815-50.816,4.912-76.46,4.014
				c-5.852-0.628-1.444-3.39,2.871-5.473c-1.442,0.695-1.457-1.35-2.9-0.654c-0.005-2.055,2.857-5.448,8.552-6.233
				c-1.428,0.047-2.857,0.051-4.29,0.065c-1.438-0.667-0.024-2.043-0.043-3.404c1.423-0.014,2.843-0.023,2.831-0.71
				c-0.012-0.68-0.037-2.042-0.049-2.723c-1.411,0.013-4.237,0.04-5.648,0.053c1.411-0.013,2.824-0.025,2.815-0.706
				c-0.009-0.681-0.026-2.043-0.035-2.726c2.792-0.675,7.036,0.534,9.832-0.208l-0.061-2.04c-2.818-0.622-7,0.212-9.797,0.208
				c1.391-0.694,1.378-1.375,1.358-2.738c4.155-0.759,8.4,1.187,12.516-1.01c-1.395,0.064-2.788,0.104-4.178,0.135
				c1.339-1.725,3.761-1.986,6.377-1.928C663.468,541.358,666.274,541.773,668.353,541.306z"/>
		</g>
		<g>
			<path fill="#020202" d="M715.78,602.285c2.305,12.625,3.355,27.008,3.584,41.648c0.247,14.646-0.408,29.479-1.05,43.164
				c-0.021,2.057-0.247,4.116-0.382,6.194c-0.178,2.08-0.293,4.154-0.56,6.269c-0.275,2.117-0.489,4.223-0.88,6.384l-0.547,3.232
				c-0.196,1.08-0.443,2.168-0.667,3.255c-0.893,4.346-2.134,8.745-3.607,13.147c-1.512,4.404-3.39,8.811-5.611,13.151
				c-2.297,4.328-4.996,8.571-8.147,12.575c-3.128,4.02-6.824,7.713-10.8,10.988c-3.989,3.266-8.302,6.105-12.749,8.397
				c-4.45,2.283-8.992,4.078-13.486,5.501c-0.374-1.287,1.866-4.183-1.218-3.9c-1.508,0.176-2.83,0.299-3.989,0.328
				c-1.159,0.001-2.156-0.049-3.016-0.142c-1.72-0.163-2.886-0.619-3.703-1.092c-1.627-0.98-1.856-2.324-2.105-3.663
				c-0.121-0.675,1.858-1.048,3.506-1.399c1.645-0.398,2.952-0.718,1.482-1.061c3.915-0.919,9.029-2.755,11.974-4.465
				c2.96-1.688,3.871-2.745,0.006-1.656c-0.748-0.063-1.873,0.214-3.192,0.648c-1.334,0.391-2.876,0.919-4.438,1.368
				c-3.131,0.884-6.345,1.451-7.806,0.71c-1.465-0.752-1.029-1.88-0.638-2.998c0.399-1.12,0.754-2.229-0.634-2.996
				c-2.328,0.518-7.086,1.27-9.511,1.496c-1.273-0.536-0.768-1.625-0.276-2.541c0.495-0.916,0.988-1.66-0.168-1.523
				c-3.563-0.316-7.65-0.171-12.147-0.139c-4.483,0.057-9.335,0.096-14.221-0.191c0.042-0.68-0.558-1.398-0.523-1.993
				c0.018-0.298,0.194-0.564,0.688-0.779c0.467-0.222,1.23-0.396,2.439-0.506c10.491,0.354,20.833-0.062,30.149-2.023
				c4.651-0.979,9.016-2.347,12.958-4.135c3.966-1.766,7.407-4.056,10.49-6.724c6.155-5.3,10.656-12.8,13.928-21.673
				c3.255-8.883,5.197-18.904,6.427-29.418c2.458-20.825,1.649-42.46-0.056-64.543c-1.691-22.086-4.292-44.735-5.016-67.965
				c0.118-10.639,3.25-2.759,5.729,4.952c-0.839-2.573,1.214-2.697,0.39-5.277c1.02-0.054,2.45,1.183,3.779,3.709
				c1.355,2.521,2.639,6.322,3.375,11.44c-0.221-2.568-0.375-5.149-0.566-7.728c0.497-2.622,2.038-0.135,3.396-0.23
				c0.182,2.566,0.362,5.127,1.043,5.075c0.678-0.051,2.037-0.155,2.715-0.207c-0.165-2.546-0.575-7.649-0.686-10.195
				c0.117,2.546,0.338,5.096,1.004,5.05c0.68-0.046,2.039-0.139,2.72-0.185c1.008,5.014,0.282,12.738,1.426,17.776l2.033-0.183
				c0.216-5.146-1.093-12.679-1.422-17.731c0.859,2.483,1.538,2.432,2.897,2.334c1.208,7.482-0.126,15.267,2.619,22.701
				l-0.701-7.609C715.854,581.643,714.375,594.628,715.78,602.285z"/>
		</g>
		<g>
			<path fill="#020202" d="M794.017,633.479c5.412,0.484,10.917,2.197,15.824,4.76c4.935,2.55,9.404,5.814,13.375,9.35
				c7.947,7.12,14.105,15.102,20.026,22.063c7.669,9.009,12.896,19.903,16.293,31.114c1.625,5.614,2.851,11.298,3.651,16.931
				c0.762,5.631,1.261,11.214,1.367,16.646c-1.361,0.028-3.457-1.679-4.084,0.115c-0.879,3.567-2.177,5.293-3.431,6.147
				c-1.282,0.851-2.644,0.824-4.006,0.807c-1.362-0.017,0.027-5.043-1.344-3.362c0.025-1.253-0.106-2.717-0.221-4.123
				c-0.123-1.407-0.293-2.759-0.552-3.789c-0.481-2.065-1.046-2.84-1.557-0.32c-0.315,0.433-0.426,1.16-0.477,2.037
				c-0.069,0.877-0.059,1.904-0.07,2.931c0.006,2.054-0.187,4.109-1.217,4.919c-2.053,1.594-4.078-1.607-6.128-0.024
				c-0.006,0.783-0.016,1.957-0.026,3.131c-0.047,1.174-0.094,2.349-0.125,3.131c-1.424,1.479-4.023-1.722-4.084-0.184
				c-1.562,4.489-1.383,10.575-2.318,16.617c-0.673-0.104-1.409,0.196-1.998,0.107c-0.294-0.045-0.553-0.188-0.748-0.526
				c-0.204-0.315-0.352-0.81-0.419-1.573c1.513-12.952,1.352-26.176-0.79-38.695c-1.072-6.254-2.649-12.323-4.769-18.03
				c-2.101-5.686-4.833-11.117-7.882-15.685c-0.792-1.155-1.746-2.473-2.666-3.698c-0.929-1.239-1.887-2.435-2.85-3.616
				c-1.937-2.348-3.96-4.541-6.031-6.552c-4.134-4.019-8.522-7.254-12.668-9.211c-4.186-1.968-7.857-2.674-11.533-2.362
				c-3.676,0.296-7.779,1.852-12.113,4.588c-1.043,0.572-1.77,0.728-2.235,0.594c-0.269-0.032-0.445-0.165-0.543-0.377
				c-0.096-0.217-0.113-0.516-0.125-0.819c-0.003-1.259,0.815-3.4,1.917-5.285c-0.699,1.292-1.848-0.455-2.561,0.891
				c-0.295-0.415-0.507-1.007-0.577-1.715c-0.064-0.692,0.014-1.504,0.288-2.395c0.136-0.445,0.321-0.91,0.56-1.389
				c0.249-0.453,0.556-0.909,0.921-1.374c0.717-0.963,1.725-1.811,2.984-2.606l-1.992,0.962c-0.661,0.332-1.297,0.727-1.949,1.085
				c-1.652,0.152-1.048-1.753-1.71-2.943c0.699-0.392,1.39-0.795,1.879-1.156c0.501-0.336,0.787-0.664,0.637-0.97
				c-0.301-0.61-0.904-1.832-1.205-2.442c-1.571,0.712-4.517,2.468-5.918,3.433c0.713-0.466,1.426-0.932,1.92-1.353
				c0.515-0.391,0.804-0.75,0.633-1.045c-0.342-0.589-1.027-1.767-1.37-2.357c1.397-1.226,3.55-2.138,5.741-2.899
				c2.208-0.754,4.455-1.325,6.183-2.145l-0.526-1.972c-1.995,0.184-4.356,0.972-6.558,2.003c-2.196,1.042-4.245,2.286-5.865,3.249
				c1.311-1.528,1.01-2.135,0.36-3.334c1.229-0.866,2.628-1.502,4.021-2.091c0.725-0.261,1.456-0.504,2.187-0.741
				c0.726-0.245,1.463-0.465,2.223-0.649c0.751-0.198,1.499-0.402,2.239-0.625c0.75-0.204,1.513-0.389,2.26-0.628
				c1.486-0.508,3.016-0.952,4.532-1.723l-3.173,0.518c-1.042,0.22-2.072,0.48-3.104,0.731c1.604-2.178,5.47-3.226,9.675-3.264
				C786.418,632.227,790.765,633.179,794.017,633.479z"/>
		</g>
		<g>
			<path fill="#020202" d="M794.81,712.518c-0.356,1.44-0.669,2.526-0.997,3.5c-0.225,1.006-0.569,2.013-0.713,3.38
				c-0.068,0.318-0.019,0.731-0.046,1.094c0.007,0.387-0.072,0.722,0.004,1.164l0.131,1.261c0.03,0.222,0.024,0.394,0.086,0.653
				l0.178,0.761c0.122,0.505,0.25,1.005,0.388,1.498l0.105,0.369l0.098,0.273l0.2,0.521c0.145,0.31,0.304,0.509,0.464,0.758
				c0.211,0.256,0.398,0.492,0.638,0.729c1.228,1.117,2.551,2.371,3.964,3.624c1.43,1.246,2.933,2.483,4.445,3.592
				c2.992,2.244,6.19,3.805,7.99,4.133c-0.239,1.34-1.116,3.269-0.829,4.001c1.374,2.319,1.533,4.949,1.394,7.691
				c-0.051,1.414-2.222-0.194-1.614,1.237c-0.589-0.035-1.286-0.18-1.976-0.204c-0.686-0.109-1.374-0.113-1.923-0.136
				c-1.094-0.007-1.727,0.321-0.671,1.39c0.21,0.806,1.324,1.12,2.423,1.44c1.104,0.33,2.204,0.599,2.605,1.67
				c0.407,1.063,0.117,2.067-0.245,3.056c-0.347,0.989-0.768,1.972-0.246,3.053c0.614,0.059,1.559,0.068,2.493,0.095
				c0.95-0.048,1.898-0.082,2.532-0.16c0.713,0.59,0.542,1.646,0.278,2.541c-0.256,0.894-0.572,1.605,0.168,1.523
				c2.29,0.425,5.057,0.012,7.78-1.06c2.716-1.101,5.29-2.815,7.602-4.636c0.426,0.532,1.038,0.914,1.411,1.379
				c0.186,0.232,0.313,0.485,0.325,0.789c-0.087,0.372-0.364,0.849-0.932,1.472c-2.857,2.188-6.255,4.046-9.911,5.226
				c-3.654,1.178-7.473,1.678-11.084,1.615c-7.263-0.149-13.607-2.24-18.975-4.991c-5.412-2.776-10.063-6.256-14.192-10.328
				c-4.126-4.081-7.749-8.75-10.656-14.593c-0.722-1.462-1.385-3.025-1.975-4.687c-0.611-1.715-1.042-3.381-1.369-4.75l-0.893-3.882
				c-0.244-1.504-0.459-3.047-0.656-4.575c-0.133-1.609-0.188-3.281-0.236-4.922c0.082-1.748,0.143-3.473,0.374-5.247
				c0.142-0.9,0.297-1.8,0.465-2.697l0.263-1.342l0.377-1.344c0.259-0.895,0.532-1.786,0.818-2.671
				c0.297-0.879,0.683-1.719,1.042-2.573c0.703-1.74,1.592-3.278,2.494-4.826c0.443-0.801,0.934-1.47,1.421-2.171
				c0.489-0.693,0.986-1.39,1.49-2.062l1.539-1.828c0.517-0.602,1.043-1.226,1.56-1.728c1.033-1.043,2.104-2.161,3.124-3.029
				c4.155-3.72,8.093-6.399,11.794-8.804c3.648-1.815,2.795,2.168,1.607,5.575c0.406-1.152,1.608,0.51,2.006-0.627
				c1.207,1.656,1.617,5.524-1.089,8.484c0.78-0.628,1.566-1.203,2.352-1.796c1.19-0.043,1.222,1.637,2.042,2.724
				c-0.77,0.579-1.54,1.156-1.123,1.698c0.414,0.539,1.244,1.621,1.658,2.16c0.755-0.564,2.269-1.696,3.024-2.26
				c-0.771,0.557-1.513,1.13-1.108,1.672c0.409,0.545,1.226,1.635,1.635,2.182c-0.538,0.826-1.563,1.379-2.542,1.949
				c-1.009,0.56-1.974,1.146-2.417,1.978l1.325,1.553c0.863-0.293,1.68-0.977,2.516-1.726c0.797-0.751,1.61-1.572,2.343-2.12
				c-0.321,1.094,0.094,1.633,0.917,2.72c-1.666,2.124-5.038,2.188-5.312,5.274c0.55-0.515,1.102-1.034,1.748-1.558
				c0.45,1.823-0.356,2.806-1.423,3.596c-0.468,0.389-1.096,0.738-1.536,1.1C795.339,711.699,794.934,712.08,794.81,712.518z"/>
		</g>
		<g>
			<path fill="#020202" d="M913.372,670.053c3.117,12.38,4.056,26.562,3.771,40.518c-0.267,13.985-1.556,27.782-2.02,40.305
				c-0.435,15.053-2.384,30.532-5.067,45.688c-2.676,15.172-6.037,30.059-9.227,44.205c-1.328-0.299-2.789-3.107-3.986-0.897
				c-4.113,8.979-6.769,8.378-9.428,7.785c-1.329-0.297,1.588-7.071-0.271-5.014c1.595-7.072,3.583-19.039,0.663-12.246
				c-1.858,2.063-2.658,11.797-5.178,13.707c-2.525,1.917-3.458-3.254-5.979-1.341c-0.528,2.369-1.583,7.102-2.11,9.467
				c-1.856,2.071-3.466-3.252-3.992-0.881c-2.899,6.828-4.309,16.511-6.208,26.126c-1.328-0.279-3.16,1.889-2.855-3.063
				c3.894-21.178,8.443-42.094,12.566-62.896c4.129-20.794,7.843-41.484,10.106-62.002c2.266-20.505,3.059-40.841,1.322-60.563
				c-1.708-19.72-6.028-38.775-13.256-56.642c-2.89-8.35,2.202-3.531,6.783,2.012c-1.479-1.842,0.365-2.614-1.162-4.452
				c0.937-0.407,2.641,0.097,4.674,1.78c1.009,0.844,2.012,2.019,3.066,3.503c1.021,1.496,2.165,3.277,3.024,5.482
				c-0.692-2.262-1.63-4.432-2.445-6.653c-0.209-2.46,1.901-0.748,3.174-1.231c0.859,2.252,1.716,4.497,2.358,4.268
				c0.64-0.229,1.923-0.689,2.563-0.918c-0.436-1.145-1.091-2.862-1.746-4.581c-0.647-1.721-1.306-3.438-1.821-4.55
				c0.247,0.561,0.493,1.122,0.725,1.647c0.215,0.533,0.426,1.026,0.629,1.439c0.407,0.828,0.784,1.339,1.102,1.217
				c0.635-0.247,1.905-0.739,2.541-0.986c1.2,2.213,2.209,5.179,2.973,8.211c0.409,1.508,0.817,3.013,1.262,4.425
				c0.438,1.414,0.822,2.761,1.338,3.911l1.962-0.564c-0.191-1.256-0.458-2.659-0.892-4.094c-0.439-1.434-0.955-2.926-1.491-4.411
				c-1.02-2.988-2.356-5.858-3.248-8.217c1.537,2.115,2.177,1.886,3.453,1.407c0.422,0.867,0.803,1.75,1.156,2.642
				c0.326,0.902,0.605,1.821,0.879,2.741c0.543,1.842,1.023,3.702,1.541,5.546c0.465,1.86,0.929,3.715,1.557,5.526
				c0.312,0.906,0.659,1.803,1.056,2.689c0.387,0.889,0.774,1.776,1.251,2.647c-0.548-2.498-1.303-4.951-1.987-7.417
				c1.167,0.997,2.101,2.58,2.885,4.501c0.71,1.938,1.248,4.216,1.724,6.588c0.52,2.365,0.744,4.859,1.117,7.2
				c0.173,1.173,0.36,2.312,0.561,3.392C912.95,668.092,913.141,669.116,913.372,670.053z"/>
		</g>
		<g>
			<path fill="#020202" d="M943.868,624.111c5.022-0.277,10.366,0.127,15.876,1.179c2.757,0.536,5.555,1.23,8.394,2.16
				c2.83,0.892,5.709,2.046,8.607,3.46c2.891,1.401,5.835,3.146,8.742,5.427l1.082,0.854l1.08,0.969
				c0.715,0.646,1.421,1.289,2.114,2.071c0.688,0.758,1.404,1.496,2.049,2.391l0.969,1.306c0.328,0.432,0.634,0.893,0.857,1.303
				c3.84,6.288,5.833,12.71,7.008,18.819c1.37,7.296,1.193,14.825-0.418,21.912c-1.585,7.107-4.349,13.938-8.218,20.098
				c-3.843,6.176-8.684,11.759-14.268,16.44c-5.608,4.652-11.949,8.378-18.545,11.004c-0.475-1.276,0.827-3.989-1.517-3.795
				c-1.133,0.168-2.125,0.28-3.008,0.308c-0.892-0.006-1.664-0.063-2.333-0.161c-1.34-0.2-2.27-0.553-2.941-1.028
				c-1.351-0.993-1.662-2.32-1.999-3.64c-0.312-1.199,5.633-1.681,3.37-2.389c1.396-0.382,2.935-1.101,4.418-1.76
				c1.479-0.675,2.803-1.537,3.813-2.185c1.963-1.429,2.466-2.357-0.281-1.563c-0.577-0.101-1.381,0.096-2.304,0.431
				c-0.461,0.167-0.952,0.369-1.46,0.587c-0.521,0.186-1.062,0.378-1.603,0.57c-2.142,0.824-4.421,1.267-5.55,0.563
				c-1.133-0.719-0.963-1.84-0.847-2.946c0.127-1.108,0.199-2.201-0.844-2.944c-1.522,0.453-4.631,1.153-6.222,1.335
				c-0.886-0.552-0.622-1.627-0.379-2.527c0.248-0.9,0.493-1.627-0.229-1.516c-0.57-0.094-1.144-0.108-1.745-0.168
				c-0.604-0.067-1.22-0.105-1.849-0.117c-1.249,0.025-2.585-0.057-3.961-0.036c-0.344,0.007-0.691,0.014-1.041,0.021
				c-0.354-0.018-0.709-0.035-1.067-0.054c-0.718-0.024-1.443-0.05-2.176-0.075c-1.47-0.079-2.976-0.299-4.474-0.469
				c0.112-0.672-0.22-1.418-0.122-2.006c0.049-0.294,0.204-0.549,0.577-0.734c0.31-0.208,0.786-0.363,1.516-0.44
				c12.446,1.559,24-1.909,32.396-9.537c4.186-3.796,7.595-8.564,9.842-13.714c2.214-5.134,3.22-10.679,2.79-15.23
				c-0.202-2.269-0.745-4.238-1.48-5.763c-0.093-0.19-0.178-0.383-0.258-0.58c-0.114-0.163-0.224-0.325-0.325-0.493l-0.107-0.184
				c-0.025-0.04-0.049-0.127-0.056-0.094c-0.024,0.018-0.03,0.026-0.019,0.019c0.027-0.009-0.074-0.025-0.105-0.076
				c-0.025-0.026-0.047-0.054-0.066-0.085l-0.156-0.112c-0.113-0.08-0.188-0.167-0.309-0.265c-0.158-0.099-0.311-0.204-0.457-0.316
				c-0.122-0.114-0.345-0.229-0.54-0.348c-0.207-0.119-0.37-0.249-0.603-0.373c-0.5-0.238-0.9-0.519-1.486-0.759l-0.814-0.387
				l-0.904-0.365c-0.579-0.26-1.259-0.476-1.907-0.713c-2.649-0.923-5.68-1.672-8.83-2.228c-6.313-1.117-13.12-1.53-19.647-1.252
				c-3.262,0.141-6.465,0.462-9.434,0.969c-2.953,0.496-5.736,1.22-7.682,2.002c-0.231,0.062-0.459,0.101-0.646,0.126
				c-0.161,0.029-0.311,0.039-0.45,0.033c-0.277-0.012-0.51-0.087-0.696-0.207c-0.279-0.057-0.442-0.208-0.508-0.435
				c-0.032-0.114-0.041-0.247-0.027-0.396c0.008-0.146-0.025-0.264-0.019-0.412c0.028-0.564,0.112-1.322,0.594-2.119
				c0.399-0.821,1.103-1.683,1.873-2.52c-0.521,0.549-0.92,0.361-1.368,0.164c-0.445-0.201-0.898-0.383-1.322,0.203
				c-0.426-0.922-0.453-2.455,0.551-4.106c0.983-1.639,3.005-3.428,6.241-4.478l-2.445,0.589c-0.795,0.235-1.606,0.442-2.391,0.695
				c-1.777-0.121-0.643-1.939-1.026-3.246c1.69-0.524,3.402-0.964,3.246-1.614c-0.164-0.66-0.492-1.982-0.656-2.643
				c-1.815,0.427-5.429,1.508-7.185,2.293c1.765-0.74,3.568-1.262,3.363-1.933c-0.205-0.65-0.616-1.949-0.821-2.6
				c0.904-0.465,1.975-0.802,3.118-1.094c1.143-0.242,2.36-0.485,3.569-0.619c2.425-0.343,4.815-0.509,6.68-1.087l-0.25-2.026
				c-4-0.225-9.794,1.571-13.732,2.88c1.778-1.252,1.613-1.886,1.242-3.206c2.998-1.184,6.142-1.512,9.17-1.791
				c3.044-0.293,6-0.628,8.932-1.825c-2.001,0.121-4.011,0.312-6.027,0.561c1.812-1.951,5.418-2.477,9.221-2.422
				C936.831,623.683,940.833,624.272,943.868,624.111z"/>
		</g>
		<g>
			<path fill="#020202" d="M1058.854,635.908c5.411,0.484,10.917,2.197,15.823,4.76c4.935,2.55,9.404,5.814,13.375,9.35
				c7.946,7.12,14.105,15.102,20.025,22.063c7.669,9.009,12.896,19.903,16.294,31.114c1.626,5.614,2.852,11.298,3.65,16.931
				c0.762,5.631,1.261,11.214,1.368,16.646c-1.361,0.028-3.457-1.679-4.085,0.115c-0.879,3.567-2.177,5.293-3.431,6.147
				c-1.282,0.851-2.645,0.824-4.006,0.807c-1.361-0.017,0.026-5.043-1.345-3.362c0.025-1.253-0.106-2.717-0.221-4.123
				c-0.122-1.407-0.292-2.759-0.552-3.789c-0.481-2.065-1.046-2.84-1.557-0.32c-0.315,0.433-0.426,1.16-0.477,2.037
				c-0.069,0.877-0.06,1.904-0.07,2.931c0.006,2.054-0.188,4.109-1.217,4.918c-2.053,1.595-4.078-1.606-6.128-0.023
				c-0.007,0.783-0.017,1.957-0.026,3.131c-0.048,1.174-0.095,2.349-0.126,3.131c-1.424,1.479-4.023-1.722-4.084-0.184
				c-1.563,4.489-1.383,10.575-2.318,16.617c-0.673-0.104-1.408,0.197-1.997,0.107c-0.295-0.045-0.553-0.188-0.748-0.526
				c-0.204-0.315-0.352-0.81-0.419-1.573c1.513-12.952,1.353-26.176-0.789-38.695c-1.073-6.254-2.65-12.323-4.77-18.03
				c-2.102-5.686-4.833-11.116-7.882-15.684c-0.792-1.155-1.746-2.473-2.666-3.698c-0.929-1.239-1.886-2.435-2.85-3.616
				c-1.938-2.348-3.961-4.541-6.031-6.552c-4.135-4.019-8.522-7.254-12.669-9.21c-4.186-1.969-7.857-2.675-11.533-2.362
				c-3.676,0.296-7.778,1.852-12.112,4.588c-1.044,0.572-1.77,0.728-2.235,0.594c-0.269-0.032-0.445-0.165-0.544-0.377
				c-0.096-0.217-0.112-0.516-0.124-0.819c-0.004-1.26,0.814-3.4,1.917-5.285c-0.699,1.292-1.849-0.455-2.562,0.891
				c-0.295-0.415-0.507-1.007-0.577-1.715c-0.064-0.692,0.015-1.504,0.288-2.395c0.136-0.445,0.321-0.91,0.56-1.389
				c0.249-0.453,0.556-0.909,0.921-1.374c0.718-0.963,1.725-1.811,2.985-2.606l-1.993,0.962c-0.66,0.332-1.297,0.727-1.949,1.085
				c-1.652,0.152-1.048-1.753-1.71-2.943c0.698-0.393,1.39-0.796,1.879-1.156c0.501-0.336,0.787-0.664,0.637-0.97
				c-0.301-0.61-0.903-1.832-1.204-2.442c-1.571,0.712-4.518,2.468-5.918,3.433c0.714-0.466,1.426-0.932,1.92-1.353
				c0.515-0.391,0.804-0.75,0.633-1.045c-0.342-0.589-1.026-1.767-1.369-2.357c1.396-1.226,3.55-2.138,5.74-2.899
				c2.209-0.754,4.455-1.325,6.183-2.145l-0.526-1.972c-1.995,0.184-4.356,0.972-6.558,2.003c-2.196,1.042-4.244,2.286-5.865,3.249
				c1.311-1.528,1.01-2.135,0.36-3.334c1.229-0.866,2.628-1.503,4.021-2.091c0.725-0.261,1.456-0.504,2.188-0.741
				c0.726-0.245,1.462-0.465,2.223-0.649c0.751-0.198,1.498-0.402,2.238-0.625c0.75-0.204,1.513-0.389,2.26-0.628
				c1.486-0.508,3.016-0.952,4.532-1.723l-3.173,0.518c-1.043,0.22-2.072,0.48-3.105,0.731c1.604-2.178,5.47-3.227,9.675-3.264
				C1051.255,634.657,1055.602,635.608,1058.854,635.908z"/>
		</g>
		<g>
			<path fill="#020202" d="M1063.057,711.407c-0.297,1.463-0.561,2.628-0.909,3.755c-0.06,0.295-0.112,0.594-0.2,0.884
				c-0.038,0.148-0.1,0.284-0.132,0.44l-0.079,0.483c-0.052,0.327-0.158,0.628-0.21,0.978c-0.031,0.363-0.075,0.727-0.128,1.091
				c-0.077,0.349-0.074,0.762-0.077,1.173l-0.033,1.228c0.042,0.446,0.083,0.891,0.124,1.333c0.061,0.464,0.059,0.841,0.18,1.369
				c0.113,0.517,0.232,1.027,0.362,1.532l0.202,0.751c0.07,0.26,0.143,0.497,0.211,0.662c0.288,0.83,0.585,1.254,1.049,1.809
				c2.236,2.474,4.944,5.446,7.696,7.877c1.381,1.206,2.774,2.261,4.021,3.047c1.249,0.813,2.331,1.229,2.935,1.407
				c-0.32,1.323-1.259,3.172-1.082,3.94c0.238,0.602,0.395,1.176,0.529,1.812c0.117,0.593,0.206,1.23,0.259,1.883
				c0.112,1.313,0.039,2.659-0.068,4.019c-0.109,1.386-2.068-0.285-1.578,1.168c-1.111-0.194-2.646-0.485-3.721-0.559
				c-1.062-0.069-1.703,0.177-0.771,1.346c0.15,0.778,1.203,1.212,2.26,1.577c1.06,0.379,2.108,0.737,2.458,1.791
				c0.354,1.074,0.028,2.063-0.384,3.041c-0.396,0.979-0.877,1.947-0.386,3.038c1.23,0.238,3.853,0.234,5.164,0.098
				c0.725,0.629,0.535,1.667,0.244,2.544c-0.281,0.874-0.631,1.582,0.148,1.525c2.39,0.43,5.359,0.016,8.15-1.237
				c2.803-1.228,5.349-3.129,7.554-5.086c0.456,0.506,1.087,0.854,1.485,1.297c0.2,0.222,0.342,0.467,0.374,0.767
				c-0.068,0.379-0.322,0.875-0.862,1.535c-2.762,2.371-6.22,4.488-10.095,5.804c-3.864,1.336-8.021,1.815-11.843,1.587
				c-3.845-0.218-7.349-1.084-10.494-2.233c-3.149-1.159-5.965-2.614-8.545-4.227c-5.164-3.238-9.375-7.109-13.087-11.448
				c-3.669-4.376-6.813-9.241-9.185-15.107l-0.831-2.272c-0.26-0.782-0.496-1.596-0.731-2.396c-0.224-0.792-0.37-1.488-0.551-2.239
				l-0.418-1.925l-0.39-1.868l-0.191-0.935l-0.154-1.066c-0.182-1.457-0.411-2.845-0.507-4.365
				c-0.064-1.551-0.178-3.044-0.136-4.646l0.121-2.434c0.049-0.811,0.088-1.611,0.231-2.462c0.267-1.682,0.454-3.338,0.943-5.029
				c0.218-0.841,0.446-1.68,0.686-2.514c0.254-0.83,0.583-1.642,0.888-2.457c1.217-3.289,2.925-6.244,4.718-8.945
				c0.914-1.272,1.861-2.543,2.819-3.693l1.448-1.645l0.731-0.814l0.723-0.73c3.894-3.95,7.658-6.844,11.174-9.419
				c3.5-1.986,2.904,2.012,1.94,5.46c0.333-1.169,1.626,0.424,1.949-0.725c1.3,1.584,1.948,5.403-0.54,8.484
				c0.733-0.663,1.473-1.28,2.213-1.904c1.176-0.103,1.313,1.564,2.195,2.602c-0.724,0.613-1.45,1.221-0.999,1.742
				c0.444,0.514,1.336,1.545,1.781,2.059c0.709-0.597,2.13-1.793,2.839-2.391c-0.725,0.591-1.422,1.195-0.986,1.713
				c0.439,0.521,1.318,1.562,1.759,2.083c-0.48,0.844-1.449,1.443-2.379,2.054c-0.961,0.603-1.86,1.232-2.248,2.075l1.417,1.469
				c1.645-0.656,3.126-2.874,4.526-4.038c-0.245,1.099,0.2,1.614,1.085,2.651c-0.406,0.557-0.869,0.974-1.383,1.345
				c-0.504,0.37-1.1,0.697-1.581,1.05c-0.494,0.353-0.963,0.74-1.326,1.23c-0.353,0.489-0.537,1.08-0.561,1.831
				c0.521-0.534,1.001-1.07,1.604-1.617c0.298,0.886,0.236,1.586,0.029,2.159c-0.202,0.572-0.723,1.041-1.15,1.447
				C1064.394,709.837,1063.258,710.509,1063.057,711.407z"/>
		</g>
		<g>
			<path fill="#020202" d="M1182.771,670.026c0.614,3.179,0.998,6.566,0.98,10.036c0.016,1.736-0.011,3.496-0.061,5.265
				c-0.089,1.767-0.228,3.543-0.354,5.319c-0.491,7.116-1.425,14.153-1.156,20.691c0.319,7.849-0.222,16.024-1.634,24.031
				l-0.507,3.008l-0.618,2.98c-0.424,1.982-0.855,3.959-1.311,5.919c-0.512,1.945-1.021,3.882-1.526,5.803
				c-0.26,0.958-0.519,1.913-0.776,2.863c-0.284,0.942-0.566,1.881-0.848,2.814c-1.305-0.393-2.892-2.201-3.917-1.165
				c-3.438,4.322-6.027,3.463-8.626,2.648c-1.299-0.41,1.083-3.583-0.579-2.793c0.535-1.787,1.106-4.214,1.206-5.799
				c0.078-1.593-0.254-2.321-1.393-0.716c-1.627,0.813-1.774,5.915-4.072,6.488c-2.303,0.556-3.552-2.374-5.851-1.823
				c-0.322,1.157-1.096,3.429-1.477,4.566c-1.673,0.697-3.505-2.411-3.882-1.285c-1.224,1.462-1.991,3.374-2.754,5.447
				c-0.764,2.072-1.417,4.343-2.229,6.555c-0.636-0.244-1.382-0.202-1.938-0.415c-0.554-0.216-0.917-0.691-0.84-1.897
				c6.609-19.293,10.756-39.609,12.76-59.908c2.016-20.323,1.931-40.601,0.247-60.442c0.102-4.608,3.219-1.654,5.692,1.579
				c-0.824-1.068,1.203-1.333,0.379-2.408c2.003-0.284,5.742,1.606,6.944,6.342c-0.091-1.202-0.264-2.392-0.413-3.588
				c0.522-1.278,2.027-0.248,3.38-0.406c0.154,1.213,0.312,2.424,0.986,2.351c0.676-0.074,2.03-0.222,2.707-0.295
				c-0.156-1.229-0.47-3.692-0.626-4.921c0.157,1.229,0.313,2.459,0.989,2.379c0.677-0.081,2.029-0.244,2.707-0.325
				c1.05,2.422-0.039,6.324,0.89,8.763l2.034-0.168c0.428-2.588-0.521-6.329-0.897-8.838c0.838,1.181,1.515,1.106,2.868,0.951
				c0.6,1.872,0.377,3.833,0.4,5.761c-0.01,1.933,0.219,3.835,1.316,5.69c-0.056-1.283-0.17-2.564-0.293-3.845
				c0.901,0.571,1.466,1.419,1.769,2.431c0.292,1.012,0.358,2.184,0.341,3.4C1182.746,665.505,1182.423,668.103,1182.771,670.026z"
				/>
		</g>
		<g>
			<path fill="#020202" d="M1240.829,694.964c5.487,5.161,10.546,11.257,15.023,17.926c4.482,6.672,8.343,13.937,11.646,21.449
				c6.634,15.047,10.81,31.08,13.192,46.509l-27.38,0.931c-0.03-2.058-0.077-4.027-0.158-5.975
				c-0.893-17.122-2.149-35.399-1.784-54.54c0.192-9.541,0.782-19.294,2.061-28.938l0.5-3.518l0.251-1.755l0.296-1.878
				c0.205-1.262,0.409-2.521,0.613-3.779c0.244-1.279,0.543-2.585,0.816-3.871l0.423-1.933l0.507-1.913
				c0.349-1.271,0.698-2.54,1.046-3.805c0.819-2.486,1.574-4.997,2.536-7.384c1.263,0.509,1.998,4.324,3.821,1.449
				c1.616-2.945,3.184-4.916,4.422-6.36c1.306-1.393,2.387-2.193,3.302-2.625c1.828-0.861,3.054-0.212,4.266,0.398
				c0.585,0.296-0.394,2.363-1.226,4.077c-0.817,1.725-1.385,3.147-0.168,2.019c-1.941,4.127-3.778,9.996-4.474,13.745
				c-0.674,3.771-0.561,5.303,1.276,1.138c0.531-0.629,1.002-1.849,1.612-3.313c0.58-1.473,1.158-3.236,1.893-4.941
				c0.354-0.856,0.694-1.72,1.075-2.526c0.395-0.801,0.791-1.562,1.186-2.246c0.771-1.377,1.614-2.407,2.395-2.845
				c1.557-0.877,2.152,0.24,2.766,1.32c0.609,1.087,1.237,2.136,2.763,1.323c1.116-2.528,3.856-7.446,5.276-9.899
				c1.317-0.875,1.829,0.26,2.205,1.291c0.382,1.034,0.637,1.969,1.324,0.771c2.689-3.246,5.465-7.331,8.425-11.919
				c2.955-4.585,6.075-9.677,9.249-14.847c0.581,0.356,1.546,0.084,2.055,0.395c0.514,0.305,0.575,1.187-0.759,3.969
				c-3.652,6.031-7.377,11.815-10.807,17.423c-3.43,5.607-6.502,11.036-8.982,16.45c-2.484,5.414-4.376,10.814-5.633,16.397
				l-0.823,4.232l-0.642,4.492l-0.634,4.893c-0.191,1.617-0.332,3.194-0.502,4.793c-1.21,12.789-1.355,25.949-1.21,39.526
				c0.136,13.577,0.483,27.576,0.065,41.938l-33.713,1.145c-1.282-10.45-4.128-21.036-8.155-31.099
				c-4.038-10.066-9.261-19.655-15.498-28.231c-6.234-8.571-13.511-16.127-21.595-21.938c-8.083-5.812-16.932-9.86-26.224-11.622
				c-2.242-0.495-3.502-0.934-4.005-1.4c-0.324-0.224-0.406-0.446-0.287-0.664c0.126-0.218,0.455-0.434,0.825-0.636
				c0.79-0.407,2.122-0.792,3.766-1.144c0.812-0.119,1.699-0.226,2.632-0.323c0.469-0.045,0.946-0.091,1.428-0.137
				c0.479-0.024,0.961-0.021,1.448-0.029c-1.288-0.008-1.821-0.443-2.373-0.891c-0.548-0.452-1.115-0.908-2.419-0.819
				c0.169-1.006,1.635-2.106,4.523-2.759c2.833-0.479,7.172-0.543,12.438,1.328c-1.298-0.493-2.573-1.048-3.886-1.496
				c-1.32-0.421-2.633-0.875-3.96-1.276c-2.513-1.353,0.539-1.97,0.945-3.271c2.773,0.864,5.517,1.789,5.743,1.196
				c0.237-0.637,0.714-1.914,0.951-2.552c-0.696-0.296-1.6-0.582-2.59-0.904c-0.992-0.316-2.065-0.69-3.156-1.011
				c-2.205-0.55-4.387-1.206-5.887-1.438c1.496,0.25,2.948,0.687,4.074,0.878c1.122,0.204,1.905,0.232,2-0.094
				c0.189-0.654,0.568-1.963,0.758-2.619c1.56,0.292,3.263,0.827,5.043,1.427c1.738,0.706,3.563,1.47,5.331,2.337
				c3.529,1.759,6.922,3.695,9.774,5.02l1.037-1.758c-2.566-1.95-6.17-3.805-9.892-5.368c-1.867-0.771-3.792-1.413-5.595-2.063
				c-1.84-0.558-3.582-1.085-5.132-1.555c3.286,0.313,3.517-0.299,3.941-1.603c2.457,0.56,4.755,1.562,7.061,2.521
				c1.125,0.537,2.231,1.109,3.34,1.675c0.551,0.288,1.11,0.562,1.652,0.862l1.607,0.931c4.343,2.407,8.414,5.063,13.014,7.098
				c-2.662-1.921-5.403-3.761-8.265-5.431c3.748,0.176,8.815,3.32,13.558,7.346c1.164,1.028,2.36,2.065,3.491,3.148
				c1.112,1.097,2.22,2.19,3.3,3.255C1237.068,691.232,1239.077,693.262,1240.829,694.964z"/>
		</g>
	</g>
	<g>
		<path fill="#C90000" d="M989.856,798.132h1.582c6.797,0.742,10.195,3.789,10.195,9.141v1.816c0,9.141-3.398,17.656-10.195,25.547
			h-1.582c-1.055-0.273-2.09-1.797-3.105-4.57l3.926-13.652l-3.164-1.875c-7.227,0.586-20.586,7.891-40.078,21.914v0.938
			l51.855,9.141c5.234,3.789,7.852,10.176,7.852,19.16v5.449c0,12.266-8.633,22.93-25.898,31.992
			c-6.797,2.422-13.34,3.633-19.629,3.633h-1.582c-18.047,0-29.043-7.305-32.988-21.914v-5.449c0-6.719,1.836-10.078,5.508-10.078
			c3.594,11.563,10.137,17.344,19.629,17.344c0,1.211,3.926,1.816,11.777,1.816c11.641,0,22.891-5.469,33.75-16.406
			c0-7.227-16.758-11.797-50.273-13.711c-12.031-3.086-18.047-7.637-18.047-13.652c0-14.844,16.23-29.766,48.691-44.766
			L989.856,798.132z"/>
		<path fill="#C90000" stroke="#C90000" stroke-width="3" stroke-miterlimit="10" d="M1061.467,828.738h2.881
			c3.613,0,5.777,2.913,6.494,8.74v1.367c0,8.821-3.337,14.648-10.01,17.48l-1.172-1.367v-0.684l2.979-11.426l-2.344-1.318
			c-9.733,0-21.306,9.195-34.717,27.588c-3.19,5.566-4.785,9.814-4.785,12.744v0.684c0,7.161,4.329,10.742,12.988,10.742h0.537
			c8.333,0,17.562-2.23,27.686-6.689h1.807c1.563,0.716,2.344,2.278,2.344,4.688v2.686c-8.334,8.528-18.132,12.793-29.395,12.793
			c-15.332-1.596-22.998-9.213-22.998-22.852v-1.367c0-17.416,12.354-34.457,37.061-51.123
			C1055.51,829.632,1059.058,828.738,1061.467,828.738z"/>
		<path fill="#C90000" stroke="#C90000" stroke-width="3" stroke-miterlimit="10" d="M1122.991,828.591
			c2.311,0.618,3.467,2.197,3.467,4.736v0.635c-3.256,48.079-5.566,72.119-6.934,72.119l-0.732,0.684h-2.051
			c-2.409,0-4.037-1.123-4.883-3.369c0.911-6.413,1.367-15.397,1.367-26.953h-0.684l-29.199,6.738l-2.051,2.686v12.793
			c0,3.809-1.4,6.51-4.199,8.105h-1.367c-2.604,0-4.232-1.123-4.883-3.369c3.223-48.535,7.861-72.803,13.916-72.803h1.367l2.1,2.734
			c-3.256,16.113-4.883,28.011-4.883,35.693c21.321-2.8,31.982-6.169,31.982-10.107l2.783-28.32L1122.991,828.591z"/>
		<path fill="#C90000" stroke="#C90000" stroke-width="3" stroke-miterlimit="10" d="M1173.528,828.591
			c13.899,1.92,20.85,10.237,20.85,24.951c0,19.271-7.617,35.221-22.852,47.852c-6.283,3.58-11.898,5.371-16.846,5.371
			c-12.077,0-19.857-6.511-23.34-19.531l-0.488-6.055v-2.051c0-21.029,9.603-36.979,28.809-47.852
			C1164.478,829.486,1169.1,828.591,1173.528,828.591z M1137.297,881.179c5.013,7.617,11.637,11.426,19.873,11.426
			c13.248,0,22.51-7.861,27.783-23.584l0.977-7.422c0-11.068-5.453-17.578-16.357-19.531h-1.514
			c-9.018,0-18.441,8.984-28.271,26.953C1138.127,874.424,1137.297,878.477,1137.297,881.179z"/>
		<path fill="#C90000" stroke="#C90000" stroke-width="3" stroke-miterlimit="10" d="M1240.178,828.591
			c13.899,1.92,20.85,10.237,20.85,24.951c0,19.271-7.617,35.221-22.852,47.852c-6.283,3.58-11.898,5.371-16.846,5.371
			c-12.077,0-19.857-6.511-23.34-19.531l-0.488-6.055v-2.051c0-21.029,9.603-36.979,28.809-47.852
			C1231.128,829.486,1235.75,828.591,1240.178,828.591z M1203.948,881.179c5.013,7.617,11.637,11.426,19.873,11.426
			c13.248,0,22.51-7.861,27.783-23.584l0.977-7.422c0-11.068-5.453-17.578-16.357-19.531h-1.514
			c-9.018,0-18.441,8.984-28.271,26.953C1204.778,874.424,1203.948,878.477,1203.948,881.179z"/>
		<path fill="#C90000" stroke="#C90000" stroke-width="3" stroke-miterlimit="10" d="M1274.163,828.591h0.684
			c2.115,0,3.89,1.09,5.322,3.271c-3.093,22.525-5.307,42.676-6.641,60.449l38.086-7.861l1.318,1.953v3.955
			c0,5.989-13.803,11.458-41.406,16.406c-4.916-0.879-7.373-2.409-7.373-4.59c3.646-48.178,6.314-72.266,8.008-72.266
			L1274.163,828.591z"/>
	</g>
</g>
</svg>
